<svg width="152" height="24" viewBox="0 0 152 24" fill="none" xmlns="http://www.w3.org/2000/svg">
<path d="M10.889 0.759566C11.273 -0.253189 12.7261 -0.253189 13.1113 0.759566L15.5952 7.64006C15.6818 7.8642 15.8344 8.05678 16.0328 8.19239C16.2312 8.328 16.466 8.40026 16.7063 8.39963H22.8105C23.9384 8.39963 24.4304 9.80357 23.5436 10.4911L19.1998 14.3994C19.0052 14.5489 18.863 14.7563 18.7936 14.9917C18.7242 15.2271 18.7312 15.4785 18.8134 15.7097L20.3998 22.433C20.7862 23.513 19.5358 24.4405 18.5903 23.7757L12.6901 20.0319C12.4881 19.8899 12.2471 19.8137 12.0001 19.8137C11.7532 19.8137 11.5122 19.8899 11.3102 20.0319L5.41004 23.7757C4.46568 24.4405 3.21414 23.5118 3.60052 22.433L5.18685 15.7097C5.26914 15.4785 5.27607 15.2271 5.20666 14.9917C5.13724 14.7563 4.99504 14.5489 4.80047 14.3994L0.456658 10.4911C-0.431303 9.80357 0.063075 8.39963 1.18863 8.39963H7.29275C7.53309 8.40043 7.76801 8.32824 7.96643 8.1926C8.16484 8.05697 8.31739 7.86429 8.40391 7.64006L10.8878 0.759566H10.889Z" fill="white"/>
<path d="M74.889 0.759566C75.273 -0.253189 76.7261 -0.253189 77.1113 0.759566L79.5952 7.64006C79.6818 7.8642 79.8344 8.05678 80.0328 8.19239C80.2312 8.328 80.466 8.40026 80.7063 8.39963H86.8105C87.9384 8.39963 88.4304 9.80357 87.5436 10.4911L83.1998 14.3994C83.0052 14.5489 82.863 14.7563 82.7936 14.9917C82.7242 15.2271 82.7312 15.4785 82.8134 15.7097L84.3998 22.433C84.7862 23.513 83.5358 24.4405 82.5903 23.7757L76.6901 20.0319C76.4881 19.8899 76.2471 19.8137 76.0001 19.8137C75.7532 19.8137 75.5122 19.8899 75.3102 20.0319L69.41 23.7757C68.4657 24.4405 67.2141 23.5118 67.6005 22.433L69.1868 15.7097C69.2691 15.4785 69.2761 15.2271 69.2067 14.9917C69.1372 14.7563 68.995 14.5489 68.8005 14.3994L64.4567 10.4911C63.5687 9.80357 64.0631 8.39963 65.1886 8.39963H71.2928C71.5331 8.40043 71.768 8.32824 71.9664 8.1926C72.1648 8.05697 72.3174 7.86429 72.4039 7.64006L74.8878 0.759566H74.889Z" fill="white"/>
<path d="M42.889 0.759566C43.273 -0.253189 44.7261 -0.253189 45.1113 0.759566L47.5952 7.64006C47.6818 7.8642 47.8344 8.05678 48.0328 8.19239C48.2312 8.328 48.466 8.40026 48.7063 8.39963H54.8105C55.9384 8.39963 56.4304 9.80357 55.5436 10.4911L51.1998 14.3994C51.0052 14.5489 50.863 14.7563 50.7936 14.9917C50.7242 15.2271 50.7312 15.4785 50.8134 15.7097L52.3998 22.433C52.7862 23.513 51.5358 24.4405 50.5903 23.7757L44.6901 20.0319C44.4881 19.8899 44.2471 19.8137 44.0001 19.8137C43.7532 19.8137 43.5122 19.8899 43.3102 20.0319L37.41 23.7757C36.4657 24.4405 35.2141 23.5118 35.6005 22.433L37.1868 15.7097C37.2691 15.4785 37.2761 15.2271 37.2067 14.9917C37.1372 14.7563 36.995 14.5489 36.8005 14.3994L32.4567 10.4911C31.5687 9.80357 32.0631 8.39963 33.1886 8.39963H39.2928C39.5331 8.40043 39.768 8.32824 39.9664 8.1926C40.1648 8.05697 40.3174 7.86429 40.4039 7.64006L42.8878 0.759566H42.889Z" fill="white"/>
<path d="M106.889 0.759566C107.273 -0.253189 108.726 -0.253189 109.111 0.759566L111.595 7.64006C111.682 7.8642 111.834 8.05678 112.033 8.19239C112.231 8.328 112.466 8.40026 112.706 8.39963H118.81C119.938 8.39963 120.43 9.80357 119.544 10.4911L115.2 14.3994C115.005 14.5489 114.863 14.7563 114.794 14.9917C114.724 15.2271 114.731 15.4785 114.813 15.7097L116.4 22.433C116.786 23.513 115.536 24.4405 114.59 23.7757L108.69 20.0319C108.488 19.8899 108.247 19.8137 108 19.8137C107.753 19.8137 107.512 19.8899 107.31 20.0319L101.41 23.7757C100.466 24.4405 99.2141 23.5118 99.6005 22.433L101.187 15.7097C101.269 15.4785 101.276 15.2271 101.207 14.9917C101.137 14.7563 100.995 14.5489 100.8 14.3994L96.4567 10.4911C95.5687 9.80357 96.0631 8.39963 97.1886 8.39963H103.293C103.533 8.40043 103.768 8.32824 103.966 8.1926C104.165 8.05697 104.317 7.86429 104.404 7.64006L106.888 0.759566H106.889Z" fill="white"/>
<path d="M138.889 0.759566C139.273 -0.253189 140.726 -0.253189 141.111 0.759566L143.595 7.64006C143.682 7.8642 143.834 8.05678 144.033 8.19239C144.231 8.328 144.466 8.40026 144.706 8.39963H150.81C151.938 8.39963 152.43 9.80357 151.544 10.4911L147.2 14.3994C147.005 14.5489 146.863 14.7563 146.794 14.9917C146.724 15.2271 146.731 15.4785 146.813 15.7097L148.4 22.433C148.786 23.513 147.536 24.4405 146.59 23.7757L140.69 20.0319C140.488 19.8899 140.247 19.8137 140 19.8137C139.753 19.8137 139.512 19.8899 139.31 20.0319L133.41 23.7757C132.466 24.4405 131.214 23.5118 131.601 22.433L133.187 15.7097C133.269 15.4785 133.276 15.2271 133.207 14.9917C133.137 14.7563 132.995 14.5489 132.8 14.3994L128.457 10.4911C127.569 9.80357 128.063 8.39963 129.189 8.39963H135.293C135.533 8.40043 135.768 8.32824 135.966 8.1926C136.165 8.05697 136.317 7.86429 136.404 7.64006L138.888 0.759566H138.889Z" fill="white"/>
</svg>
