<svg width="152" height="24" viewBox="0 0 152 24" fill="none" xmlns="http://www.w3.org/2000/svg">
<path fill-rule="evenodd" clip-rule="evenodd" d="M12 3.71507e-08C11.5405 -0.000111977 11.081 0.253077 10.889 0.759566H10.8878L8.40391 7.64006C8.31739 7.86429 8.16484 8.05697 7.96643 8.1926C7.76801 8.32824 7.53309 8.40043 7.29275 8.39963H1.18863C0.063075 8.39963 -0.431303 9.80357 0.456658 10.4911L4.80047 14.3994C4.99504 14.5489 5.13724 14.7563 5.20666 14.9917C5.27607 15.2271 5.26914 15.4785 5.18685 15.7097L3.60052 22.433C3.21414 23.5118 4.46568 24.4405 5.41004 23.7757L11.3102 20.0319C11.5122 19.8899 11.7531 19.8137 12 19.8137V3.71507e-08Z" fill="#870F0F"/>
<path fill-rule="evenodd" clip-rule="evenodd" d="M12 3.71507e-08C12.4595 -0.000111977 12.919 0.253077 13.111 0.759566H13.1122L15.5961 7.64006C15.6826 7.86429 15.8352 8.05697 16.0336 8.1926C16.232 8.32824 16.4669 8.40043 16.7072 8.39963H22.8114C23.9369 8.39963 24.4313 9.80357 23.5433 10.4911L19.1995 14.3994C19.005 14.5489 18.8628 14.7563 18.7933 14.9917C18.7239 15.2271 18.7309 15.4785 18.8132 15.7097L20.3995 22.433C20.7859 23.5118 19.5343 24.4405 18.59 23.7757L12.6898 20.0319C12.4878 19.8899 12.2469 19.8137 12 19.8137V3.71507e-08Z" fill="#870F0F"/>
<path fill-rule="evenodd" clip-rule="evenodd" d="M76 3.71507e-08C75.5405 -0.000111977 75.081 0.253077 74.889 0.759566H74.8878L72.4039 7.64006C72.3174 7.86429 72.1648 8.05697 71.9664 8.1926C71.768 8.32824 71.5331 8.40043 71.2928 8.39963H65.1886C64.0631 8.39963 63.5687 9.80357 64.4567 10.4911L68.8005 14.3994C68.995 14.5489 69.1372 14.7563 69.2067 14.9917C69.2761 15.2271 69.2691 15.4785 69.1868 15.7097L67.6005 22.433C67.2141 23.5118 68.4657 24.4405 69.41 23.7757L75.3102 20.0319C75.5122 19.8899 75.7531 19.8137 76 19.8137V3.71507e-08Z" fill="#870F0F"/>
<path fill-rule="evenodd" clip-rule="evenodd" d="M76 0C76.4595 -0.000112014 76.919 0.253077 77.111 0.759566H77.1122L79.5961 7.64006C79.6826 7.86429 79.8352 8.05697 80.0336 8.1926C80.232 8.32824 80.4669 8.40043 80.7072 8.39963H86.8114C87.9369 8.39963 88.4313 9.80357 87.5433 10.4911L83.1995 14.3994C83.005 14.5489 82.8628 14.7563 82.7933 14.9917C82.7239 15.2271 82.7309 15.4785 82.8132 15.7097L84.3995 22.433C84.7859 23.5118 83.5343 24.4405 82.59 23.7757L76.6898 20.0319C76.4878 19.8899 76.2469 19.8137 76 19.8137V0Z" fill="#870F0F"/>
<path fill-rule="evenodd" clip-rule="evenodd" d="M44 3.71507e-08C43.5405 -0.000111977 43.081 0.253077 42.889 0.759566H42.8878L40.4039 7.64006C40.3174 7.86429 40.1648 8.05697 39.9664 8.1926C39.768 8.32824 39.5331 8.40043 39.2928 8.39963H33.1886C32.0631 8.39963 31.5687 9.80357 32.4567 10.4911L36.8005 14.3994C36.995 14.5489 37.1372 14.7563 37.2067 14.9917C37.2761 15.2271 37.2691 15.4785 37.1868 15.7097L35.6005 22.433C35.2141 23.5118 36.4657 24.4405 37.41 23.7757L43.3102 20.0319C43.5122 19.8899 43.7531 19.8137 44 19.8137V3.71507e-08Z" fill="#870F0F"/>
<path fill-rule="evenodd" clip-rule="evenodd" d="M44 3.71507e-08C44.4595 -0.000111977 44.919 0.253077 45.111 0.759566H45.1122L47.5961 7.64006C47.6826 7.86429 47.8352 8.05697 48.0336 8.1926C48.232 8.32824 48.4669 8.40043 48.7072 8.39963H54.8114C55.9369 8.39963 56.4313 9.80357 55.5433 10.4911L51.1995 14.3994C51.005 14.5489 50.8628 14.7563 50.7933 14.9917C50.7239 15.2271 50.7309 15.4785 50.8132 15.7097L52.3995 22.433C52.7859 23.5118 51.5343 24.4405 50.59 23.7757L44.6898 20.0319C44.4878 19.8899 44.2469 19.8137 44 19.8137V3.71507e-08Z" fill="#870F0F"/>
<path fill-rule="evenodd" clip-rule="evenodd" d="M108 3.71507e-08C107.54 -0.000111977 107.081 0.253077 106.889 0.759566H106.888L104.404 7.64006C104.317 7.86429 104.165 8.05697 103.966 8.1926C103.768 8.32824 103.533 8.40043 103.293 8.39963H97.1886C96.0631 8.39963 95.5687 9.80357 96.4567 10.4911L100.8 14.3994C100.995 14.5489 101.137 14.7563 101.207 14.9917C101.276 15.2271 101.269 15.4785 101.187 15.7097L99.6005 22.433C99.2141 23.5118 100.466 24.4405 101.41 23.7757L107.31 20.0319C107.512 19.8899 107.753 19.8137 108 19.8137V3.71507e-08Z" fill="white"/>
<path fill-rule="evenodd" clip-rule="evenodd" d="M108 3.71507e-08C108.46 -0.000111977 108.919 0.253077 109.111 0.759566H109.112L111.596 7.64006C111.683 7.86429 111.835 8.05697 112.034 8.1926C112.232 8.32824 112.467 8.40043 112.707 8.39963H118.811C119.937 8.39963 120.431 9.80357 119.543 10.4911L115.2 14.3994C115.005 14.5489 114.863 14.7563 114.793 14.9917C114.724 15.2271 114.731 15.4785 114.813 15.7097L116.399 22.433C116.786 23.5118 115.534 24.4405 114.59 23.7757L108.69 20.0319C108.488 19.8899 108.247 19.8137 108 19.8137V3.71507e-08Z" fill="white"/>
<path fill-rule="evenodd" clip-rule="evenodd" d="M140 3.71507e-08C139.54 -0.000111977 139.081 0.253077 138.889 0.759566H138.888L136.404 7.64006C136.317 7.86429 136.165 8.05697 135.966 8.1926C135.768 8.32824 135.533 8.40043 135.293 8.39963H129.189C128.063 8.39963 127.569 9.80357 128.457 10.4911L132.8 14.3994C132.995 14.5489 133.137 14.7563 133.207 14.9917C133.276 15.2271 133.269 15.4785 133.187 15.7097L131.601 22.433C131.214 23.5118 132.466 24.4405 133.41 23.7757L139.31 20.0319C139.512 19.8899 139.753 19.8137 140 19.8137V3.71507e-08Z" fill="white"/>
<path fill-rule="evenodd" clip-rule="evenodd" d="M140 3.71507e-08C140.46 -0.000111977 140.919 0.253077 141.111 0.759566H141.112L143.596 7.64006C143.683 7.86429 143.835 8.05697 144.034 8.1926C144.232 8.32824 144.467 8.40043 144.707 8.39963H150.811C151.937 8.39963 152.431 9.80357 151.543 10.4911L147.2 14.3994C147.005 14.5489 146.863 14.7563 146.793 14.9917C146.724 15.2271 146.731 15.4785 146.813 15.7097L148.399 22.433C148.786 23.5118 147.534 24.4405 146.59 23.7757L140.69 20.0319C140.488 19.8899 140.247 19.8137 140 19.8137V3.71507e-08Z" fill="white"/>
</svg>
