<svg width="29" height="28" viewBox="0 0 29 28" fill="none" xmlns="http://www.w3.org/2000/svg">
<path d="M7.0849 16.1063L12.3118 21.3361L21.9059 11.742L16.6761 6.51518L7.0849 16.1063V16.1063ZM27.9835 8.92769L25.7594 6.70211C25.1945 7.01078 24.5448 7.12817 23.9076 7.03671C23.2704 6.94524 22.6799 6.64984 22.2246 6.19473C21.7694 5.73962 21.4738 5.14928 21.3821 4.51211C21.2904 3.87493 21.4075 3.22519 21.716 2.66017L19.4919 0.434599C19.2115 0.156669 18.8327 0.000732422 18.438 0.000732422C18.0432 0.000732422 17.6644 0.156669 17.3841 0.434599L1.17801 16.6406C0.900078 16.921 0.744141 17.2998 0.744141 17.6946C0.744141 18.0893 0.900078 18.4681 1.17801 18.7485L3.40358 20.9711C3.96877 20.6616 4.61907 20.5437 5.25693 20.6351C5.89479 20.7265 6.48583 21.0223 6.94138 21.478C7.39694 21.9337 7.69247 22.5249 7.78363 23.1627C7.87479 23.8006 7.75667 24.4509 7.44699 25.016L9.67257 27.2386C9.95254 27.5173 10.3315 27.6737 10.7265 27.6737C11.1215 27.6737 11.5004 27.5173 11.7804 27.2386L27.9835 11.0355C28.2621 10.7555 28.4186 10.3766 28.4186 9.98159C28.4186 9.58659 28.2621 9.20766 27.9835 8.92769ZM12.3118 23.728L4.693 16.1063L16.6775 4.12328L24.2963 11.742L12.3118 23.728Z" fill="white"/>
</svg>
