<svg width="24" height="22" viewBox="0 0 24 22" fill="none" xmlns="http://www.w3.org/2000/svg">
<path d="M19.2 9.6C19.2 8.4492 18.384 7.4868 17.3028 7.2552C17.7348 6.534 18 5.7 18 4.8C18 2.1528 15.8472 0 13.2 0C11.3808 0 9.8136 1.0284 9 2.5248C8.1864 1.0284 6.6192 0 4.8 0C2.1528 0 0 2.1528 0 4.8C0 5.8824 0.3744 6.8712 0.9804 7.6752C0.677436 7.89662 0.430827 8.18623 0.260511 8.52061C0.0901958 8.85499 0.000953549 9.22475 0 9.6V19.2C0 20.5236 1.0764 21.6 2.4 21.6H16.8C18.1236 21.6 19.2 20.5236 19.2 19.2V16.0356L24 18.4356V10.0356L19.2 12.4356V9.6ZM13.2 2.4C14.5236 2.4 15.6 3.4764 15.6 4.8C15.6 6.1236 14.5236 7.2 13.2 7.2C11.8764 7.2 10.8 6.1236 10.8 4.8C10.8 3.4764 11.8764 2.4 13.2 2.4ZM4.8 2.4C6.1236 2.4 7.2 3.4764 7.2 4.8C7.2 6.1236 6.1236 7.2 4.8 7.2C3.4764 7.2 2.4 6.1236 2.4 4.8C2.4 3.4764 3.4764 2.4 4.8 2.4Z" fill="#870F0F"/>
</svg>
