<svg width="25" height="24" viewBox="0 0 25 24" fill="none" xmlns="http://www.w3.org/2000/svg">
<path d="M23.5848 11.6516L12.6803 0.755005C12.6018 0.676336 12.5086 0.613923 12.4059 0.571339C12.3032 0.528755 12.1932 0.506836 12.082 0.506836C11.9709 0.506836 11.8608 0.528755 11.7582 0.571339C11.6555 0.613923 11.5623 0.676336 11.4837 0.755005L0.579247 11.6516C0.261564 11.9692 0.081543 12.4008 0.081543 12.8508C0.081543 13.7853 0.841336 14.5451 1.77586 14.5451H2.92481V22.3204C2.92481 22.789 3.30338 23.1676 3.77197 23.1676H10.3877V17.2375H13.3528V23.1676H20.3921C20.8607 23.1676 21.2393 22.789 21.2393 22.3204V14.5451H22.3882C22.8383 14.5451 23.2698 14.3677 23.5875 14.0474C24.2467 13.3856 24.2467 12.3134 23.5848 11.6516V11.6516Z" fill="black"/>
</svg>
