<svg width="30" height="31" viewBox="0 0 30 31" fill="none" xmlns="http://www.w3.org/2000/svg">
<path d="M28.8195 9.95335C28.6001 8.35574 27.8151 6.89161 26.6087 5.83029C25.4024 4.76898 23.856 4.18188 22.2539 4.17699C21.7952 4.17502 21.3375 4.22156 20.8884 4.31585C20.3211 3.26353 19.4821 2.38488 18.4601 1.77261C17.438 1.16034 16.2708 0.837158 15.0814 0.837158C13.8921 0.837158 12.7248 1.16034 11.7028 1.77261C10.6807 2.38488 9.84176 3.26353 9.27447 4.31585C8.82538 4.22156 8.36769 4.17502 7.90894 4.17699C6.30686 4.18188 4.76042 4.76898 3.5541 5.83029C2.34778 6.89161 1.56273 8.35574 1.34336 9.95335C1.02729 10.2885 0.798813 10.6973 0.678441 11.1433C0.558069 11.5892 0.549569 12.0582 0.653703 12.5083L4.44684 28.6988C4.58486 29.3084 4.92516 29.8524 5.41162 30.2412C5.89808 30.6299 6.50164 30.8401 7.12273 30.8371H23.0401C23.6612 30.8401 24.2648 30.6299 24.7512 30.2412C25.2377 29.8524 25.578 29.3084 25.716 28.6988L29.5091 12.5083C29.6133 12.0582 29.6048 11.5892 29.4844 11.1433C29.364 10.6973 29.1356 10.2885 28.8195 9.95335V9.95335ZM7.90894 7.50951C8.44835 7.50478 8.98005 7.63859 9.45378 7.8983C9.67931 8.02026 9.92987 8.0879 10.1858 8.09588C10.4416 8.10387 10.6959 8.052 10.9285 7.94434C11.1611 7.83668 11.3657 7.67617 11.5263 7.47543C11.6868 7.27469 11.7989 7.0392 11.8538 6.78746C12.0205 6.0512 12.4306 5.39375 13.017 4.92283C13.6034 4.45191 14.3313 4.19545 15.0814 4.19545C15.8315 4.19545 16.5594 4.45191 17.1458 4.92283C17.7322 5.39375 18.1424 6.0512 18.309 6.78746C18.3639 7.0392 18.476 7.27469 18.6366 7.47543C18.7971 7.67617 19.0018 7.83668 19.2344 7.94434C19.467 8.052 19.7212 8.10387 19.9771 8.09588C20.233 8.0879 20.4835 8.02026 20.7091 7.8983C21.1828 7.63859 21.7145 7.50478 22.2539 7.50951C22.8851 7.5121 23.5026 7.69481 24.0349 8.03643C24.5671 8.37805 24.9922 8.86459 25.2608 9.43959L20.6815 10.7448L16.1021 8.89806C15.447 8.63385 14.7159 8.63385 14.0607 8.89806L9.48137 10.7448L4.90202 9.43959C5.17067 8.86459 5.59576 8.37805 6.12798 8.03643C6.66021 7.69481 7.27774 7.5121 7.90894 7.50951V7.50951ZM11.371 13.5775L15.0814 12.0778L18.7918 13.5775L16.9435 27.5046H13.2193L11.371 13.5775ZM4.10201 12.6749L8.06067 13.8135L9.88137 27.5046H7.56411L4.10201 12.6749ZM22.5987 27.5046H20.2815L22.1022 13.8135L26.0608 12.6749L22.5987 27.5046Z" fill="white"/>
</svg>
