<svg width="25" height="22" viewBox="0 0 25 22" fill="none" xmlns="http://www.w3.org/2000/svg">
<path d="M22.1814 0.337158H2.98142C1.65782 0.337158 0.581421 1.38366 0.581421 2.67049V19.0038C0.581421 20.2907 1.65782 21.3372 2.98142 21.3372H22.1814C23.505 21.3372 24.5814 20.2907 24.5814 19.0038V2.67049C24.5814 1.38366 23.505 0.337158 22.1814 0.337158ZM22.1826 7.33716C22.1814 7.33716 22.1814 7.33716 22.1826 7.33716H21.6246L18.4242 2.67049H22.1814L22.1826 7.33716ZM16.7814 14.3372L10.1814 17.8372V10.8372L16.7814 14.3372ZM15.6246 7.33716L12.4242 2.67049H15.5394L18.7398 7.33716H15.6246V7.33716ZM12.7398 7.33716H9.62462L6.42422 2.67049H9.53942L12.7398 7.33716ZM2.98142 2.67049H3.53942L6.73982 7.33716H2.98142V2.67049Z" fill="black"/>
</svg>
