<svg width="342" height="114" viewBox="0 0 342 114" fill="none" xmlns="http://www.w3.org/2000/svg">
<rect x="3" y="2.99988" width="336" height="108" rx="13" fill="white" stroke="#870F0F" stroke-width="6"/>
<path fill-rule="evenodd" clip-rule="evenodd" d="M106.061 33.9896L70.1379 45.6612C69.7163 45.9329 69.2322 46.0922 68.7316 46.1241L56.3921 50.126H107.713C108.49 50.126 109.235 50.4346 109.785 50.984C110.334 51.5334 110.643 52.2786 110.643 53.0556V82.3518C110.643 86.2367 109.1 89.9625 106.352 92.7095C103.605 95.4566 99.8796 96.9999 95.9947 96.9999H54.98C51.0951 96.9999 47.3693 95.4566 44.6222 92.7095C41.8752 89.9625 40.3319 86.2367 40.3319 82.3518V53.0556C40.3319 52.4345 40.5253 51.8544 40.8592 51.374L39.7167 47.8467C38.5165 44.1521 38.833 40.1321 40.5966 36.6709C42.3601 33.2097 45.4263 30.5907 49.1208 29.3901L88.1257 16.7166C91.8203 15.5164 95.8403 15.8329 99.3015 17.5964C102.763 19.36 105.382 22.4262 106.582 26.1206L107.942 30.2983C108.182 31.0372 108.118 31.8412 107.766 32.5334C107.413 33.2257 106.8 33.7495 106.061 33.9896ZM84.1239 34.9564L91.653 21.9137C91.0697 21.9813 90.4946 22.107 89.9362 22.2887L82.6415 24.6558L74.9776 37.927L84.118 34.9564H84.1239ZM97.5708 23.3609C97.5347 23.4348 97.4956 23.5071 97.4536 23.5777L92.4499 32.2494L101.461 29.3198L101.01 27.9311C100.408 26.0656 99.1967 24.4562 97.5708 23.3609ZM74.3096 27.3628L65.1692 30.3334L57.4995 43.6046L66.6399 40.634L74.3155 27.3628H74.3096ZM45.74 47.4307L49.1794 46.3174L56.8374 33.0404L50.9313 34.9622C48.7146 35.6826 46.8749 37.254 45.8167 39.3307C44.7586 41.4075 44.5687 43.8195 45.2888 46.0362L45.74 47.4307ZM64.4533 78.4656L55.0579 67.7979L64.4533 57.0813H76.4912L67.0958 67.7979L76.4912 78.4656H64.4533ZM98.4941 79.7387L89.0987 90.4064H77.0609L86.4563 79.7387L77.0609 69.0221H89.0987L98.4941 79.7387Z" fill="#870F0F"/>
<path d="M127.964 36.122C127.964 33.5649 128.54 31.271 129.693 29.2403C130.847 27.1846 132.413 25.5801 134.394 24.4269C136.4 23.2737 138.618 22.6971 141.05 22.6971C143.908 22.6971 146.402 23.3865 148.533 24.7654C150.664 26.1442 152.219 28.0997 153.196 30.6317H149.097C148.37 29.0523 147.317 27.8364 145.939 26.9841C144.585 26.1317 142.955 25.7055 141.05 25.7055C139.22 25.7055 137.578 26.1317 136.124 26.9841C134.67 27.8364 133.529 29.0523 132.702 30.6317C131.874 32.186 131.461 34.0161 131.461 36.122C131.461 38.2028 131.874 40.0329 132.702 41.6123C133.529 43.1666 134.67 44.37 136.124 45.2223C137.578 46.0747 139.22 46.5009 141.05 46.5009C142.955 46.5009 144.585 46.0872 145.939 45.2599C147.317 44.4076 148.37 43.1917 149.097 41.6123H153.196C152.219 44.1193 150.664 46.0622 148.533 47.441C146.402 48.7948 143.908 49.4717 141.05 49.4717C138.618 49.4717 136.4 48.9076 134.394 47.7794C132.413 46.6262 130.847 45.0343 129.693 43.0037C128.54 40.973 127.964 38.6791 127.964 36.122ZM160.058 25.2918C159.406 25.2918 158.854 25.0662 158.403 24.615C157.952 24.1637 157.726 23.6122 157.726 22.9604C157.726 22.3085 157.952 21.757 158.403 21.3057C158.854 20.8545 159.406 20.6289 160.058 20.6289C160.684 20.6289 161.211 20.8545 161.637 21.3057C162.088 21.757 162.314 22.3085 162.314 22.9604C162.314 23.6122 162.088 24.1637 161.637 24.615C161.211 25.0662 160.684 25.2918 160.058 25.2918ZM161.712 28.6387V49.246H158.29V28.6387H161.712ZM177.585 28.2626C180.092 28.2626 182.123 29.0272 183.677 30.5565C185.231 32.0607 186.008 34.2418 186.008 37.0997V49.246H182.624V37.5886C182.624 35.5329 182.11 33.966 181.082 32.888C180.054 31.7849 178.651 31.2334 176.871 31.2334C175.066 31.2334 173.624 31.7975 172.546 32.9256C171.493 34.0537 170.967 35.6958 170.967 37.8518V49.246H167.545V28.6387H170.967V31.5718C171.644 30.5189 172.559 29.7041 173.712 29.1275C174.89 28.5509 176.181 28.2626 177.585 28.2626ZM210.401 38.1526C210.401 38.8045 210.363 39.4939 210.288 40.2209H193.817C193.942 42.2516 194.632 43.8435 195.885 44.9967C197.164 46.1248 198.706 46.6889 200.511 46.6889C201.99 46.6889 203.218 46.3505 204.196 45.6736C205.199 44.9716 205.901 44.0441 206.302 42.8908H209.987C209.436 44.8714 208.332 46.4884 206.678 47.7418C205.023 48.9703 202.968 49.5845 200.511 49.5845C198.555 49.5845 196.8 49.1458 195.246 48.2683C193.717 47.3909 192.513 46.1499 191.636 44.5454C190.759 42.9159 190.32 41.0357 190.32 38.9047C190.32 36.7738 190.746 34.9061 191.598 33.3016C192.451 31.6972 193.642 30.4688 195.171 29.6164C196.725 28.7389 198.505 28.3002 200.511 28.3002C202.466 28.3002 204.196 28.7264 205.7 29.5788C207.204 30.4312 208.358 31.6094 209.16 33.1136C209.987 34.5927 210.401 36.2724 210.401 38.1526ZM206.866 37.4382C206.866 36.1345 206.578 35.0189 206.001 34.0913C205.424 33.1387 204.635 32.4242 203.632 31.9479C202.654 31.4465 201.564 31.1958 200.36 31.1958C198.63 31.1958 197.151 31.7473 195.923 32.8504C194.72 33.9535 194.03 35.4827 193.855 37.4382H206.866Z" fill="#870F0F"/>
<path d="M126.802 72.3916C126.802 69.2195 127.489 66.3981 128.861 63.9274C130.234 61.4263 132.14 59.4895 134.58 58.1169C137.051 56.7138 139.842 56.0123 142.953 56.0123C146.766 56.0123 150.029 57.0188 152.744 59.0319C155.459 61.045 157.274 63.7902 158.189 67.2674H149.587C148.947 65.9253 148.032 64.9035 146.842 64.202C145.683 63.5004 144.356 63.1496 142.862 63.1496C140.452 63.1496 138.5 63.9884 137.005 65.666C135.511 67.3436 134.763 69.5855 134.763 72.3916C134.763 75.1978 135.511 77.4396 137.005 79.1172C138.5 80.7948 140.452 81.6336 142.862 81.6336C144.356 81.6336 145.683 81.2828 146.842 80.5813C148.032 79.8798 148.947 78.858 149.587 77.5159H158.189C157.274 80.9931 155.459 83.7382 152.744 85.7513C150.029 87.7339 146.766 88.7252 142.953 88.7252C139.842 88.7252 137.051 88.0389 134.58 86.6664C132.14 85.2633 130.234 83.3264 128.861 80.8558C127.489 78.3852 126.802 75.5638 126.802 72.3916ZM174.601 88.8625C172.1 88.8625 169.843 88.3287 167.829 87.2611C165.847 86.1936 164.276 84.6685 163.117 82.6859C161.988 80.7033 161.424 78.3852 161.424 75.7315C161.424 73.1084 162.004 70.8055 163.163 68.8229C164.322 66.8098 165.908 65.2695 167.921 64.202C169.934 63.1344 172.191 62.6006 174.692 62.6006C177.193 62.6006 179.451 63.1344 181.464 64.202C183.477 65.2695 185.063 66.8098 186.222 68.8229C187.381 70.8055 187.961 73.1084 187.961 75.7315C187.961 78.3547 187.366 80.6728 186.176 82.6859C185.017 84.6685 183.416 86.1936 181.372 87.2611C179.359 88.3287 177.102 88.8625 174.601 88.8625ZM174.601 82.0911C176.095 82.0911 177.361 81.5421 178.398 80.444C179.466 79.346 180 77.7752 180 75.7315C180 73.6879 179.481 72.1171 178.444 71.0191C177.437 69.921 176.187 69.372 174.692 69.372C173.167 69.372 171.901 69.921 170.895 71.0191C169.888 72.0866 169.385 73.6574 169.385 75.7315C169.385 77.7752 169.873 79.346 170.849 80.444C171.856 81.5421 173.106 82.0911 174.601 82.0911ZM190.556 75.6858C190.556 73.0627 191.044 70.7598 192.02 68.7772C193.026 66.7946 194.383 65.2695 196.092 64.202C197.8 63.1344 199.706 62.6006 201.811 62.6006C203.488 62.6006 205.013 62.9514 206.386 63.6529C207.789 64.3545 208.887 65.3 209.68 66.4896V54.6397H217.504V88.4965H209.68V84.8363C208.948 86.0563 207.896 87.0324 206.523 87.7644C205.181 88.4965 203.61 88.8625 201.811 88.8625C199.706 88.8625 197.8 88.3287 196.092 87.2611C194.383 86.1631 193.026 84.6228 192.02 82.6402C191.044 80.6271 190.556 78.3089 190.556 75.6858ZM209.68 75.7315C209.68 73.7794 209.131 72.2391 208.033 71.1106C206.965 69.982 205.654 69.4177 204.098 69.4177C202.543 69.4177 201.216 69.982 200.118 71.1106C199.05 72.2086 198.516 73.7337 198.516 75.6858C198.516 77.6379 199.05 79.1935 200.118 80.3525C201.216 81.4811 202.543 82.0454 204.098 82.0454C205.654 82.0454 206.965 81.4811 208.033 80.3525C209.131 79.224 209.68 77.6836 209.68 75.7315ZM247.229 75.3198C247.229 76.0518 247.184 76.8144 247.092 77.6074H229.386C229.508 79.1935 230.011 80.4135 230.896 81.2676C231.811 82.0911 232.924 82.5029 234.236 82.5029C236.188 82.5029 237.545 81.6794 238.308 80.0323H246.635C246.208 81.7099 245.43 83.2197 244.301 84.5618C243.203 85.9038 241.815 86.9561 240.138 87.7187C238.46 88.4812 236.584 88.8625 234.51 88.8625C232.009 88.8625 229.783 88.3287 227.83 87.2611C225.878 86.1936 224.353 84.6685 223.255 82.6859C222.157 80.7033 221.608 78.3852 221.608 75.7315C221.608 73.0779 222.142 70.7598 223.209 68.7772C224.308 66.7946 225.833 65.2695 227.785 64.202C229.737 63.1344 231.979 62.6006 234.51 62.6006C236.981 62.6006 239.177 63.1191 241.099 64.1562C243.02 65.1933 244.515 66.6726 245.582 68.5942C246.68 70.5158 247.229 72.7576 247.229 75.3198ZM239.223 73.2609C239.223 71.9189 238.765 70.8513 237.85 70.0583C236.935 69.2652 235.791 68.8687 234.419 68.8687C233.107 68.8687 231.994 69.25 231.079 70.0125C230.194 70.775 229.645 71.8578 229.432 73.2609H239.223Z" fill="#870F0F"/>
<path d="M274 0.4021H314V40.4021H274V0.4021ZM278.444 4.84654V9.29099H282.889V4.84654H278.444ZM287.333 4.84654V18.1799H300.667V4.84654H287.333ZM305.111 4.84654V9.29099H309.556V4.84654H305.111ZM309.556 13.7354H305.111V18.1799H309.556V13.7354ZM309.556 22.6243H305.111V27.0688H309.556V22.6243ZM309.556 31.5132H305.111V35.9577H309.556V31.5132ZM300.667 35.9577V22.6243H287.333V35.9577H300.667ZM282.889 35.9577V31.5132H278.444V35.9577H282.889ZM278.444 27.0688H282.889V22.6243H278.444V27.0688ZM278.444 18.1799H282.889V13.7354H278.444V18.1799Z" fill="#870F0F"/>
<path d="M274 36.1469H314V76.1469H274V36.1469ZM278.444 40.5913V45.0357H282.889V40.5913H278.444ZM287.333 40.5913V53.9246H300.667V40.5913H287.333ZM305.111 40.5913V45.0357H309.556V40.5913H305.111ZM309.556 49.4802H305.111V53.9246H309.556V49.4802ZM309.556 58.3691H305.111V62.8135H309.556V58.3691ZM309.556 67.258H305.111V71.7024H309.556V67.258ZM300.667 71.7024V58.3691H287.333V71.7024H300.667ZM282.889 71.7024V67.258H278.444V71.7024H282.889ZM278.444 62.8135H282.889V58.3691H278.444V62.8135ZM278.444 53.9246H282.889V49.4802H278.444V53.9246Z" fill="#870F0F"/>
<path d="M274 72.3595H314V112.359H274V72.3595ZM278.444 76.8039V81.2484H282.889V76.8039H278.444ZM287.333 76.8039V90.1373H300.667V76.8039H287.333ZM305.111 76.8039V81.2484H309.556V76.8039H305.111ZM309.556 85.6928H305.111V90.1373H309.556V85.6928ZM309.556 94.5817H305.111V99.0262H309.556V94.5817ZM309.556 103.471H305.111V107.915H309.556V103.471ZM300.667 107.915V94.5817H287.333V107.915H300.667ZM282.889 107.915V103.471H278.444V107.915H282.889ZM278.444 99.0262H282.889V94.5817H278.444V99.0262ZM278.444 90.1373H282.889V85.6928H278.444V90.1373Z" fill="#870F0F"/>
</svg>
