<svg width="54" height="61" viewBox="0 0 54 61" fill="none" xmlns="http://www.w3.org/2000/svg">
<path fill-rule="evenodd" clip-rule="evenodd" d="M50.5026 13.5478L23.4495 22.3375C23.132 22.5421 22.7674 22.6621 22.3905 22.6861L13.0977 25.6999H51.747C52.3321 25.6999 52.8933 25.9323 53.307 26.3461C53.7208 26.7598 53.9532 27.321 53.9532 27.9061V49.9687C53.9532 52.8944 52.791 55.7002 50.7222 57.769C48.6535 59.8378 45.8476 61 42.9219 61H12.0343C9.10865 61 6.3028 59.8378 4.23403 57.769C2.16526 55.7002 1.00304 52.8944 1.00304 49.9687V27.9061C1.00304 27.4384 1.14865 27.0016 1.40016 26.6397L0.539725 23.9834C-0.36413 21.2011 -0.125781 18.1737 1.20234 15.5671C2.53047 12.9605 4.83959 10.9882 7.62181 10.084L36.9959 0.539725C39.7782 -0.36413 42.8057 -0.125781 45.4123 1.20234C48.0189 2.53047 49.9912 4.83959 50.8953 7.62181L51.919 10.7679C52.0998 11.3244 52.0521 11.9299 51.7865 12.4512C51.5209 12.9725 51.0591 13.367 50.5026 13.5478ZM33.9822 14.2759L39.6523 4.45363C39.213 4.50456 38.7799 4.59917 38.3594 4.73603L32.8658 6.51868L27.0942 16.513L33.9778 14.2759H33.9822ZM44.1089 5.54352C44.0817 5.59912 44.0523 5.65358 44.0206 5.70678L40.2524 12.2373L47.0388 10.031L46.699 8.98528C46.2454 7.58036 45.3333 6.36837 44.1089 5.54352ZM26.5912 8.55726L19.7077 10.7944L13.9317 20.7888L20.8152 18.5516L26.5956 8.55726H26.5912ZM5.07579 23.6701L7.66594 22.8317L13.4331 12.833L8.98528 14.2803C7.31595 14.8228 5.93047 16.0062 5.1336 17.5701C4.33672 19.1341 4.19371 20.9506 4.73603 22.6199L5.07579 23.6701ZM19.1685 46.2026L12.0929 38.1689L19.1685 30.0984H28.234L21.1585 38.1689L28.234 46.2026H19.1685ZM44.8041 47.1613L37.7286 55.195H28.6631L35.7386 47.1613L28.6631 39.0908H37.7286L44.8041 47.1613Z" fill="#870F0F"/>
</svg>
