<svg width="32" height="31" viewBox="0 0 32 31" fill="none" xmlns="http://www.w3.org/2000/svg">
<path d="M16 0C16.2971 0.000158633 16.5882 0.0830106 16.8408 0.239277C17.0934 0.395543 17.2976 0.619053 17.4304 0.884774L21.5582 9.13734L30.63 10.4557C30.9255 10.4986 31.2031 10.6234 31.4314 10.8159C31.6597 11.0083 31.8295 11.2609 31.9218 11.5449C32.014 11.8289 32.0249 12.133 31.9533 12.4229C31.8816 12.7128 31.7303 12.9769 31.5164 13.1852L24.9133 19.6234L26.3981 28.7016C26.4458 28.9954 26.4106 29.2968 26.2963 29.5717C26.1821 29.8467 25.9935 30.0843 25.7516 30.2579C25.5097 30.4314 25.2241 30.5341 24.9271 30.5542C24.6301 30.5744 24.3333 30.5112 24.0702 30.3719L16 26.0904L7.92983 30.3719C7.66672 30.5112 7.36995 30.5744 7.07291 30.5542C6.77587 30.5341 6.49034 30.4314 6.24844 30.2579C6.00655 30.0843 5.81788 29.8467 5.70366 29.5717C5.58944 29.2968 5.5542 28.9954 5.6019 28.7016L7.08666 19.6234L0.48365 13.1852C0.269731 12.9769 0.118387 12.7128 0.0467382 12.4229C-0.0249103 12.133 -0.0140033 11.8289 0.0782253 11.5449C0.170454 11.2609 0.340323 11.0083 0.568616 10.8159C0.796909 10.6234 1.07451 10.4986 1.37002 10.4557L10.4418 9.13734L14.5696 0.884774C14.7024 0.619053 14.9066 0.395543 15.1592 0.239277C15.4118 0.0830106 15.7029 0.000158633 16 0ZM16 5.17745L12.9313 11.3149C12.8161 11.5457 12.6469 11.7452 12.4379 11.8965C12.229 12.0478 11.9866 12.1463 11.7313 12.1836L5.03712 13.1564L9.91698 17.9131C10.1014 18.0927 10.2397 18.3143 10.3202 18.5588C10.4007 18.8034 10.421 19.0638 10.3794 19.3178L9.2802 26.0328L15.2496 22.8649C15.4807 22.7422 15.7384 22.6781 16 22.6781C16.2616 22.6781 16.5193 22.7422 16.7504 22.8649L22.7198 26.0328L21.6206 19.3178C21.5793 19.064 21.5997 18.804 21.6802 18.5597C21.7607 18.3154 21.8989 18.0942 22.083 17.9147L26.9629 13.1564L20.2703 12.1836C20.015 12.1463 19.7726 12.0478 19.5637 11.8965C19.3547 11.7452 19.1855 11.5457 19.0703 11.3149L16 5.17745Z" fill="#706B6B"/>
</svg>
