<svg width="32" height="31" viewBox="0 0 32 31" fill="none" xmlns="http://www.w3.org/2000/svg">
<path d="M31.9753 12.2161C32.1352 11.4167 31.4957 10.4575 30.6963 10.4575L21.5834 9.17845L17.4266 0.864859C17.2667 0.545106 17.1068 0.385229 16.7871 0.225353C15.9877 -0.254278 15.0284 0.065476 14.5488 0.864859L10.5519 9.17845L1.43889 10.4575C0.95926 10.4575 0.639507 10.6173 0.47963 10.9371C-0.159877 11.5766 -0.159877 12.5359 0.47963 13.1754L7.03457 19.5704L5.43581 28.6834C5.43581 29.0032 5.43581 29.3229 5.59568 29.6427C6.07531 30.442 7.03457 30.7618 7.83396 30.2822L15.9877 25.9655L24.1414 30.2822C24.3013 30.442 24.621 30.442 24.9408 30.442H25.2605C26.0599 30.2822 26.6994 29.4828 26.5395 28.5235L24.9408 19.4106L31.4957 13.0155C31.8155 12.8556 31.9753 12.5359 31.9753 12.2161V12.2161Z" fill="#870F0F"/>
</svg>
