<svg width="274" height="412" viewBox="0 0 274 412" fill="none" xmlns="http://www.w3.org/2000/svg">
<rect width="274" height="412" rx="20" fill="white"/>
<path fill-rule="evenodd" clip-rule="evenodd" d="M186.705 107.625L129.546 126.196C128.875 126.628 128.104 126.882 127.308 126.933L107.674 133.3H189.334C190.57 133.3 191.756 133.791 192.63 134.666C193.505 135.54 193.996 136.725 193.996 137.962V184.577C193.996 190.758 191.54 196.687 187.169 201.058C182.798 205.429 176.87 207.885 170.688 207.885H105.427C99.2453 207.885 93.3169 205.429 88.9459 201.058C84.5749 196.687 82.1193 190.758 82.1193 184.577L82.1193 137.962C82.1193 136.974 82.4269 136.051 82.9584 135.286L81.1404 129.674C79.2306 123.795 79.7342 117.398 82.5404 111.891C85.3465 106.384 90.2254 102.216 96.1038 100.306L158.167 80.1404C164.046 78.2306 170.442 78.7342 175.95 81.5404C181.457 84.3465 185.624 89.2254 187.535 95.1038L189.698 101.751C190.08 102.927 189.979 104.206 189.418 105.308C188.856 106.409 187.881 107.243 186.705 107.625ZM151.8 109.163L163.78 88.4099C162.852 88.5175 161.937 88.7174 161.048 89.0066L149.441 92.7731L137.246 113.89L151.79 109.163H151.8ZM173.196 90.7127C173.139 90.8302 173.076 90.9452 173.009 91.0576L165.048 104.856L179.386 100.194L178.669 97.9846C177.71 95.0162 175.783 92.4555 173.196 90.7127ZM136.184 97.0803L121.64 101.807L109.436 122.924L123.98 118.197L136.193 97.0803H136.184ZM90.7244 129.012L96.1971 127.24L108.382 106.114L98.9846 109.172C95.4576 110.319 92.5303 112.819 90.8466 116.123C89.1629 119.428 88.8607 123.266 90.0066 126.793L90.7244 129.012ZM120.501 177.25L105.551 160.276L120.501 143.224H139.655L124.705 160.276L139.655 177.25H120.501ZM174.665 179.275L159.715 196.249H140.561L155.511 179.275L140.561 162.223H159.715L174.665 179.275Z" fill="black"/>
<path d="M70.9847 248.117C70.9847 244.049 71.9022 240.399 73.7372 237.168C75.5721 233.897 78.0653 231.344 81.2166 229.509C84.4078 227.674 87.9381 226.756 91.8074 226.756C96.3549 226.756 100.324 227.853 103.715 230.047C107.105 232.241 109.579 235.353 111.134 239.382H104.612C103.455 236.868 101.78 234.934 99.586 233.577C97.432 232.221 94.8391 231.543 91.8074 231.543C88.8955 231.543 86.2827 232.221 83.969 233.577C81.6554 234.934 79.8404 236.868 78.524 239.382C77.2076 241.855 76.5494 244.767 76.5494 248.117C76.5494 251.428 77.2076 254.34 78.524 256.853C79.8404 259.327 81.6554 261.241 83.969 262.598C86.2827 263.954 88.8955 264.632 91.8074 264.632C94.8391 264.632 97.432 263.974 99.586 262.657C101.78 261.301 103.455 259.367 104.612 256.853H111.134C109.579 260.842 107.105 263.934 103.715 266.128C100.324 268.282 96.3549 269.359 91.8074 269.359C87.9381 269.359 84.4078 268.461 81.2166 266.666C78.0653 264.831 75.5721 262.298 73.7372 259.067C71.9022 255.836 70.9847 252.186 70.9847 248.117ZM122.052 230.885C121.015 230.885 120.137 230.526 119.419 229.808C118.701 229.09 118.342 228.212 118.342 227.175C118.342 226.138 118.701 225.26 119.419 224.542C120.137 223.824 121.015 223.465 122.052 223.465C123.049 223.465 123.887 223.824 124.565 224.542C125.283 225.26 125.642 226.138 125.642 227.175C125.642 228.212 125.283 229.09 124.565 229.808C123.887 230.526 123.049 230.885 122.052 230.885ZM124.685 236.21V269H119.24V236.21H124.685ZM149.941 235.612C153.93 235.612 157.161 236.829 159.634 239.262C162.107 241.655 163.344 245.126 163.344 249.673V269H157.959V250.451C157.959 247.18 157.141 244.687 155.505 242.972C153.87 241.216 151.636 240.339 148.804 240.339C145.932 240.339 143.638 241.236 141.923 243.031C140.247 244.827 139.41 247.439 139.41 250.87V269H133.965V236.21H139.41V240.877C140.487 239.202 141.943 237.906 143.778 236.988C145.653 236.071 147.707 235.612 149.941 235.612ZM202.156 251.349C202.156 252.386 202.096 253.483 201.976 254.64H175.769C175.968 257.871 177.065 260.404 179.06 262.239C181.094 264.034 183.547 264.931 186.419 264.931C188.773 264.931 190.727 264.393 192.283 263.316C193.879 262.199 194.996 260.723 195.634 258.888H201.498C200.62 262.039 198.865 264.612 196.232 266.607C193.6 268.561 190.329 269.539 186.419 269.539C183.308 269.539 180.516 268.84 178.042 267.444C175.609 266.048 173.694 264.074 172.298 261.521C170.902 258.928 170.204 255.936 170.204 252.545C170.204 249.155 170.882 246.183 172.238 243.63C173.595 241.077 175.489 239.122 177.923 237.766C180.396 236.37 183.228 235.672 186.419 235.672C189.531 235.672 192.283 236.35 194.677 237.706C197.07 239.062 198.905 240.937 200.181 243.331C201.498 245.684 202.156 248.357 202.156 251.349ZM196.531 250.212C196.531 248.137 196.073 246.362 195.155 244.886C194.238 243.371 192.981 242.234 191.386 241.476C189.83 240.678 188.095 240.279 186.18 240.279C183.428 240.279 181.074 241.157 179.119 242.912C177.205 244.667 176.108 247.1 175.828 250.212H196.531Z" fill="black"/>
<path d="M41.1372 305.281C41.1372 300.234 42.2291 295.745 44.4131 291.813C46.5971 287.834 49.6304 284.752 53.5131 282.568C57.4443 280.335 61.8851 279.219 66.8354 279.219C72.9021 279.219 78.0951 280.821 82.4146 284.024C86.734 287.227 89.6217 291.595 91.0777 297.128H77.3914C76.3722 294.992 74.9162 293.367 73.0234 292.25C71.1791 291.134 69.068 290.576 66.6898 290.576C62.8557 290.576 59.7496 291.911 57.3715 294.58C54.9934 297.249 53.8043 300.816 53.8043 305.281C53.8043 309.746 54.9934 313.314 57.3715 315.983C59.7496 318.652 62.8557 319.987 66.6898 319.987C69.068 319.987 71.1791 319.429 73.0234 318.313C74.9162 317.196 76.3722 315.57 77.3914 313.435H91.0777C89.6217 318.968 86.734 323.336 82.4146 326.539C78.0951 329.694 72.9021 331.271 66.8354 331.271C61.8851 331.271 57.4443 330.179 53.5131 327.995C49.6304 325.762 46.5971 322.68 44.4131 318.749C42.2291 314.818 41.1372 310.329 41.1372 305.281ZM117.192 331.489C113.213 331.489 109.621 330.64 106.418 328.941C103.263 327.243 100.764 324.816 98.9196 321.661C97.1239 318.507 96.226 314.818 96.226 310.596C96.226 306.422 97.1481 302.758 98.9924 299.603C100.837 296.4 103.36 293.949 106.564 292.25C109.767 290.552 113.358 289.702 117.338 289.702C121.318 289.702 124.909 290.552 128.112 292.25C131.315 293.949 133.839 296.4 135.683 299.603C137.528 302.758 138.45 306.422 138.45 310.596C138.45 314.77 137.503 318.458 135.611 321.661C133.766 324.816 131.218 327.243 127.967 328.941C124.763 330.64 121.172 331.489 117.192 331.489ZM117.192 320.715C119.57 320.715 121.585 319.841 123.235 318.094C124.933 316.347 125.783 313.847 125.783 310.596C125.783 307.344 124.958 304.845 123.307 303.097C121.706 301.35 119.716 300.477 117.338 300.477C114.911 300.477 112.897 301.35 111.296 303.097C109.694 304.796 108.893 307.296 108.893 310.596C108.893 313.847 109.67 316.347 111.223 318.094C112.824 319.841 114.814 320.715 117.192 320.715ZM142.579 310.523C142.579 306.349 143.355 302.685 144.909 299.53C146.51 296.376 148.67 293.949 151.388 292.25C154.106 290.552 157.139 289.702 160.488 289.702C163.157 289.702 165.584 290.26 167.768 291.377C170 292.493 171.747 293.997 173.009 295.89V277.035H185.458V330.907H173.009V325.083C171.844 327.024 170.17 328.577 167.986 329.742C165.851 330.907 163.351 331.489 160.488 331.489C157.139 331.489 154.106 330.64 151.388 328.941C148.67 327.194 146.51 324.743 144.909 321.589C143.355 318.385 142.579 314.697 142.579 310.523ZM173.009 310.596C173.009 307.49 172.136 305.039 170.388 303.243C168.69 301.447 166.603 300.549 164.128 300.549C161.652 300.549 159.541 301.447 157.794 303.243C156.095 304.99 155.246 307.417 155.246 310.523C155.246 313.629 156.095 316.104 157.794 317.949C159.541 319.744 161.652 320.642 164.128 320.642C166.603 320.642 168.69 319.744 170.388 317.949C172.136 316.153 173.009 313.702 173.009 310.596ZM232.757 309.941C232.757 311.105 232.684 312.319 232.538 313.581H204.365C204.559 316.104 205.36 318.046 206.767 319.405C208.223 320.715 209.995 321.37 212.082 321.37C215.188 321.37 217.347 320.06 218.561 317.439H231.81C231.131 320.108 229.893 322.511 228.097 324.646C226.35 326.782 224.142 328.456 221.473 329.669C218.803 330.883 215.819 331.489 212.518 331.489C208.539 331.489 204.996 330.64 201.89 328.941C198.783 327.243 196.357 324.816 194.61 321.661C192.862 318.507 191.989 314.818 191.989 310.596C191.989 306.373 192.838 302.685 194.537 299.53C196.284 296.376 198.711 293.949 201.817 292.25C204.923 290.552 208.49 289.702 212.518 289.702C216.45 289.702 219.944 290.527 223.002 292.177C226.059 293.828 228.437 296.181 230.136 299.239C231.883 302.297 232.757 305.864 232.757 309.941ZM220.017 306.665C220.017 304.529 219.289 302.83 217.833 301.569C216.377 300.307 214.557 299.676 212.373 299.676C210.286 299.676 208.514 300.282 207.058 301.496C205.651 302.709 204.777 304.432 204.438 306.665H220.017Z" fill="black"/>
</svg>
