<svg width="68" height="68" viewBox="0 0 68 68" fill="none" xmlns="http://www.w3.org/2000/svg">
<path d="M19.38 48.62C20.0033 49.2433 20.7967 49.555 21.76 49.555C22.7233 49.555 23.5167 49.2433 24.14 48.62L34 38.76L43.945 48.705C44.5683 49.3283 45.3481 49.6253 46.2842 49.5958C47.2181 49.5686 47.9967 49.2433 48.62 48.62C49.2433 47.9967 49.555 47.2033 49.555 46.24C49.555 45.2767 49.2433 44.4833 48.62 43.86L38.76 34L48.705 24.055C49.3283 23.4317 49.6253 22.6519 49.5958 21.7158C49.5686 20.7819 49.2433 20.0033 48.62 19.38C47.9967 18.7567 47.2033 18.445 46.24 18.445C45.2767 18.445 44.4833 18.7567 43.86 19.38L34 29.24L24.055 19.295C23.4317 18.6717 22.6531 18.3736 21.7192 18.4008C20.7831 18.4303 20.0033 18.7567 19.38 19.38C18.7567 20.0033 18.445 20.7967 18.445 21.76C18.445 22.7233 18.7567 23.5167 19.38 24.14L29.24 34L19.295 43.945C18.6717 44.5683 18.3747 45.3469 18.4042 46.2808C18.4314 47.2169 18.7567 47.9967 19.38 48.62ZM34 68C29.2967 68 24.8767 67.1069 20.74 65.3208C16.6033 63.5369 13.005 61.115 9.945 58.055C6.885 54.995 4.46307 51.3967 2.6792 47.26C0.893067 43.1233 0 38.7033 0 34C0 29.2967 0.893067 24.8767 2.6792 20.74C4.46307 16.6033 6.885 13.005 9.945 9.945C13.005 6.885 16.6033 4.46193 20.74 2.6758C24.8767 0.891933 29.2967 0 34 0C38.7033 0 43.1233 0.891933 47.26 2.6758C51.3967 4.46193 54.995 6.885 58.055 9.945C61.115 13.005 63.5369 16.6033 65.3208 20.74C67.1069 24.8767 68 29.2967 68 34C68 38.7033 67.1069 43.1233 65.3208 47.26C63.5369 51.3967 61.115 54.995 58.055 58.055C54.995 61.115 51.3967 63.5369 47.26 65.3208C43.1233 67.1069 38.7033 68 34 68Z" fill="white"/>
</svg>
