<svg width="246" height="249" viewBox="0 0 246 249" fill="none" xmlns="http://www.w3.org/2000/svg">
<path d="M234.956 91.511L234.042 92.038V62.2614L222.99 55.8829L209.318 63.7727L220.595 21.3785L209.551 15L190.539 25.9744L159.817 140.849V157.319L170.861 163.697L205.342 143.779V155.645L216.394 162.023L234.018 151.808V127.193L245.977 120.288V97.8895L234.956 91.511ZM205.342 108.631L195.988 114.057L205.342 78.8548V108.631Z" fill="#870F0F"/>
<path opacity="0.3" d="M234.956 91.511L234.042 92.038V62.2614L222.99 55.8829L209.318 63.7727L220.595 21.3785L209.551 15L190.539 25.9744L159.817 140.849V157.319L170.861 163.697L205.342 143.779V155.645L216.394 162.023L234.018 151.808V127.193L245.977 120.288V97.8895L234.956 91.511ZM205.342 108.631L195.988 114.057L205.342 78.8548V108.631Z" fill="white"/>
<path d="M234.034 104.795V62.2614L216.356 72.4685V115.01L191.942 129.1L220.595 21.3785L201.584 32.3529L170.861 147.228V163.666L216.356 137.408V162.023L234.034 151.808V127.193L246.001 120.288V97.8895L234.034 104.795Z" fill="#870F0F"/>
<path opacity="0.3" d="M234.034 104.795V62.2614L216.356 72.4685V115.01L191.942 129.1L220.595 21.3785L201.584 32.3529L170.861 147.228V163.666L216.356 137.408V162.023L234.034 151.808V127.193L246.001 120.288V97.8895L234.034 104.795Z" fill="#870F0F"/>
<path d="M220.595 21.3785L209.551 15L190.539 25.9744L201.583 32.3529L220.595 21.3785Z" fill="#870F0F"/>
<path opacity="0.5" d="M220.595 21.3785L209.551 15L190.539 25.9744L201.583 32.3529L220.595 21.3785Z" fill="white"/>
<path d="M222.99 55.8828L234.034 62.2613L216.355 72.4685L208.249 67.7873L209.318 63.7727L222.99 55.8828Z" fill="#870F0F"/>
<path opacity="0.5" d="M222.99 55.8828L234.034 62.2613L216.355 72.4685L208.249 67.7873L209.318 63.7727L222.99 55.8828Z" fill="white"/>
<path d="M216.355 115.01L205.303 108.631L195.949 114.033L191.942 129.1L216.355 115.01Z" fill="#870F0F"/>
<path opacity="0.5" d="M216.355 115.01L205.303 108.631L195.949 114.033L191.942 129.1L216.355 115.01Z" fill="white"/>
<path d="M246 97.8895L234.956 91.511L234.034 92.038V104.795L246 97.8895Z" fill="#870F0F"/>
<path opacity="0.5" d="M234.034 104.795L246 97.8895L234.956 91.511L234.034 92.038V104.795Z" fill="white"/>
<path d="M170.861 147.228L159.817 140.849L190.539 25.9744L201.583 32.3529L170.861 147.228Z" fill="#870F0F"/>
<path opacity="0.15" d="M170.861 147.228L159.817 140.849L190.539 25.9744L201.583 32.3529L170.861 147.228Z" fill="white"/>
<path d="M140.599 101.08C132.907 96.7916 122.353 97.4964 110.736 104.215C87.1271 117.803 68.0508 150.885 68.0508 178.084C68.0508 193.176 73.9278 203.282 83.1792 206.979C90.609 209.965 100.219 208.771 110.707 202.715C134.262 189.109 153.362 156.027 153.362 128.828C153.362 115.074 148.477 105.452 140.599 101.08ZM141.017 117.576C138.628 120.192 136.096 123.047 133.569 126.051C128.477 132.07 123.693 138.344 119.235 144.847C118.638 145.742 118.041 146.609 117.527 147.421C116.954 146.995 116.242 146.801 115.532 146.877C115.712 146.244 115.891 145.581 116.076 144.888L115.15 146.292C114.577 145.867 113.865 145.673 113.155 145.748C113.406 144.888 113.657 143.957 113.908 142.977C115.752 135.902 117.166 128.722 118.142 121.476C118.644 117.976 119.02 114.524 119.301 111.323C125.059 109.77 130.195 110.313 134.268 112.685C136.907 113.689 139.234 115.37 141.017 117.558V117.576ZM82.7611 148.717C87.1868 138.283 94.0791 128.41 102.148 121.243C102.238 122.247 102.333 123.262 102.453 124.283C103.133 123.626 103.82 122.987 104.525 122.366C104.77 125.245 105.122 128.273 105.642 131.181C106.517 136.836 107.937 142.392 109.882 147.773C110.127 148.46 110.408 149.093 110.629 149.678C109.846 150.54 109.176 151.497 108.634 152.527C108.103 152.33 107.547 152.115 106.95 151.93C102.284 150.538 97.4488 149.792 92.58 149.714C90.0971 149.612 87.6103 149.654 85.1322 149.84C85.3114 149.416 85.4965 148.986 85.6817 148.568C84.6962 148.579 83.7227 148.633 82.7611 148.699V148.717ZM87.2166 193.774C86.5223 193.182 85.8772 192.535 85.2875 191.839L84.8515 192.651C80.2049 188.703 77.3978 181.9 77.3978 172.691C77.3978 172.01 77.4336 171.305 77.4336 170.618C80.0197 169.74 82.8089 168.731 85.6339 167.578C91.497 165.166 97.164 162.302 102.584 159.013C103.366 158.524 104.113 158.058 104.8 157.592C104.817 158.38 105.055 159.148 105.487 159.808C106.084 159.438 106.639 159.079 107.171 158.721C107.185 159.545 107.445 160.345 107.917 161.02C107.32 161.761 106.723 162.585 106.078 163.451C102.118 168.868 97.3162 176.137 92.9861 183.537C90.9316 186.971 88.9965 190.429 87.2166 193.756V193.774ZM113.09 193.057C108.909 195.482 104.83 196.927 101.145 197.375C101.366 196.814 101.587 196.246 101.802 195.679C100.806 195.937 99.7946 196.126 98.7735 196.246C100.117 192.848 101.425 189.246 102.674 185.579C105.143 178.391 107.234 171.079 108.939 163.672C109.154 162.722 109.315 161.803 109.5 160.943C109.936 160.787 110.354 160.587 110.748 160.345C111.171 160.098 111.571 159.815 111.943 159.497C112.1 160.203 112.3 160.899 112.54 161.582C112.54 161.641 112.576 161.695 112.588 161.755C112.755 161.677 112.922 161.582 113.096 161.486C113.519 161.241 113.919 160.957 114.29 160.638H114.32C114.465 161.345 114.653 162.043 114.881 162.728C116.432 167.823 118.541 172.73 121.171 177.361C122.348 179.493 123.648 181.555 125.065 183.537C121.535 187.252 117.505 190.456 113.09 193.057V193.057ZM136.747 162.412C136.693 162.537 136.627 162.663 136.562 162.788C134.735 161.463 132.819 160.266 130.828 159.205C130.392 158.96 129.938 158.727 129.49 158.5C126.466 157.146 123.312 156.101 120.078 155.382C119.45 155.239 118.829 155.131 118.286 155.06C118.375 154.851 118.447 154.648 118.519 154.462L117.718 154.277C117.127 154.139 116.529 154.033 115.927 153.961C116.348 152.952 116.6 151.88 116.673 150.789C117.36 150.467 118.113 150.067 118.859 149.672C124.766 146.388 130.442 142.702 135.845 138.641C138.652 136.557 141.423 134.341 144.009 132.233C144.009 132.919 144.045 133.588 144.045 134.269C144.045 134.598 144.045 134.926 144.045 135.261L146.393 133.361C146.393 134.048 146.393 134.711 146.393 135.392C146.393 144.572 143.585 154.654 138.945 163.953C138.24 163.385 137.505 162.884 136.747 162.394V162.412Z" fill="#870F0F"/>
<path opacity="0.4" d="M140.599 101.08C132.907 96.7916 122.353 97.4964 110.736 104.215C87.1271 117.803 68.0508 150.885 68.0508 178.084C68.0508 193.176 73.9278 203.282 83.1792 206.979C90.609 209.965 100.219 208.771 110.707 202.715C134.262 189.109 153.362 156.027 153.362 128.828C153.362 115.074 148.477 105.452 140.599 101.08ZM141.017 117.576C138.628 120.192 136.096 123.047 133.569 126.051C128.477 132.07 123.693 138.344 119.235 144.847C118.638 145.742 118.041 146.609 117.527 147.421C116.954 146.995 116.242 146.801 115.532 146.877C115.712 146.244 115.891 145.581 116.076 144.888L115.15 146.292C114.577 145.867 113.865 145.673 113.155 145.748C113.406 144.888 113.657 143.957 113.908 142.977C115.752 135.902 117.166 128.722 118.142 121.476C118.644 117.976 119.02 114.524 119.301 111.323C125.059 109.77 130.195 110.313 134.268 112.685C136.907 113.689 139.234 115.37 141.017 117.558V117.576ZM82.7611 148.717C87.1868 138.283 94.0791 128.41 102.148 121.243C102.238 122.247 102.333 123.262 102.453 124.283C103.133 123.626 103.82 122.987 104.525 122.366C104.77 125.245 105.122 128.273 105.642 131.181C106.517 136.836 107.937 142.392 109.882 147.773C110.127 148.46 110.408 149.093 110.629 149.678C109.846 150.54 109.176 151.497 108.634 152.527C108.103 152.33 107.547 152.115 106.95 151.93C102.284 150.538 97.4488 149.792 92.58 149.714C90.0971 149.612 87.6103 149.654 85.1322 149.84C85.3114 149.416 85.4965 148.986 85.6817 148.568C84.6962 148.579 83.7227 148.633 82.7611 148.699V148.717ZM87.2166 193.774C86.5223 193.182 85.8772 192.535 85.2875 191.839L84.8515 192.651C80.2049 188.703 77.3978 181.9 77.3978 172.691C77.3978 172.01 77.4336 171.305 77.4336 170.618C80.0197 169.74 82.8089 168.731 85.6339 167.578C91.497 165.166 97.164 162.302 102.584 159.013C103.366 158.524 104.113 158.058 104.8 157.592C104.817 158.38 105.055 159.148 105.487 159.808C106.084 159.438 106.639 159.079 107.171 158.721C107.185 159.545 107.445 160.345 107.917 161.02C107.32 161.761 106.723 162.585 106.078 163.451C102.118 168.868 97.3162 176.137 92.9861 183.537C90.9316 186.971 88.9965 190.429 87.2166 193.756V193.774ZM113.09 193.057C108.909 195.482 104.83 196.927 101.145 197.375C101.366 196.814 101.587 196.246 101.802 195.679C100.806 195.937 99.7946 196.126 98.7735 196.246C100.117 192.848 101.425 189.246 102.674 185.579C105.143 178.391 107.234 171.079 108.939 163.672C109.154 162.722 109.315 161.803 109.5 160.943C109.936 160.787 110.354 160.587 110.748 160.345C111.171 160.098 111.571 159.815 111.943 159.497C112.1 160.203 112.3 160.899 112.54 161.582C112.54 161.641 112.576 161.695 112.588 161.755C112.755 161.677 112.922 161.582 113.096 161.486C113.519 161.241 113.919 160.957 114.29 160.638H114.32C114.465 161.345 114.653 162.043 114.881 162.728C116.432 167.823 118.541 172.73 121.171 177.361C122.348 179.493 123.648 181.555 125.065 183.537C121.535 187.252 117.505 190.456 113.09 193.057V193.057ZM136.747 162.412C136.693 162.537 136.627 162.663 136.562 162.788C134.735 161.463 132.819 160.266 130.828 159.205C130.392 158.96 129.938 158.727 129.49 158.5C126.466 157.146 123.312 156.101 120.078 155.382C119.45 155.239 118.829 155.131 118.286 155.06C118.375 154.851 118.447 154.648 118.519 154.462L117.718 154.277C117.127 154.139 116.529 154.033 115.927 153.961C116.348 152.952 116.6 151.88 116.673 150.789C117.36 150.467 118.113 150.067 118.859 149.672C124.766 146.388 130.442 142.702 135.845 138.641C138.652 136.557 141.423 134.341 144.009 132.233C144.009 132.919 144.045 133.588 144.045 134.269C144.045 134.598 144.045 134.926 144.045 135.261L146.393 133.361C146.393 134.048 146.393 134.711 146.393 135.392C146.393 144.572 143.585 154.654 138.945 163.953C138.24 163.385 137.505 162.884 136.747 162.394V162.412Z" fill="white"/>
<path d="M140.599 101.08C133.175 98.0936 123.565 99.2881 113.078 105.344C89.5159 118.932 70.4038 152.008 70.4038 179.213C70.4038 192.949 75.2953 202.583 83.1671 206.979C90.8657 211.267 101.419 210.562 113.066 203.837C136.621 190.238 155.721 157.162 155.721 129.957C155.733 114.864 149.839 104.753 140.599 101.08ZM118.501 154.427C118.784 153.605 118.956 152.749 119.014 151.882C119.695 151.554 120.448 151.16 121.194 150.759C127.103 147.476 132.78 143.793 138.186 139.734C140.157 138.265 142.11 136.748 144.003 135.225L146.351 133.326C146.351 134.012 146.351 134.675 146.351 135.356C146.351 144.536 143.543 154.618 138.903 163.917C138.21 163.403 137.475 162.902 136.717 162.412C135.582 161.683 134.388 160.984 133.169 160.315C131.951 159.647 130.714 159.037 129.46 158.488C126.436 157.134 123.282 156.089 120.048 155.37C119.42 155.227 118.799 155.119 118.256 155.048C118.357 154.833 118.429 154.618 118.501 154.409V154.427ZM141.017 117.576C138.628 120.192 136.096 123.047 133.569 126.051C128.477 132.07 123.693 138.344 119.235 144.847C118.638 145.742 118.041 146.608 117.527 147.421C116.954 146.995 116.242 146.801 115.532 146.877C115.711 146.244 115.891 145.581 116.076 144.888C116.141 144.632 116.207 144.369 116.279 144.106C118.122 137.031 119.536 129.851 120.513 122.605C121.015 119.117 121.385 115.659 121.666 112.452C126.36 111.185 130.625 111.317 134.268 112.69C136.906 113.693 139.233 115.372 141.017 117.558V117.576ZM113.09 161.492C113.513 161.247 113.913 160.963 114.284 160.644H114.314C114.459 161.351 114.647 162.049 114.875 162.734C116.428 167.827 118.539 172.733 121.17 177.361C122.348 179.493 123.648 181.555 125.064 183.537C121.543 187.243 117.523 190.441 113.119 193.039C108.939 195.464 104.859 196.909 101.174 197.357C101.395 196.796 101.616 196.228 101.831 195.661C102.948 192.764 104.029 189.748 105.074 186.702C107.546 179.517 109.637 172.206 111.34 164.801C111.555 163.845 111.71 162.931 111.895 162.065C112.15 161.986 112.398 161.884 112.636 161.761C112.749 161.665 112.916 161.57 113.09 161.474V161.492ZM79.7687 173.819C79.7687 173.132 79.8046 172.428 79.8046 171.747C82.3907 170.863 85.1799 169.854 87.9989 168.707C93.8627 166.292 99.5316 163.429 104.955 160.142L105.486 159.808C106.084 159.437 106.639 159.079 107.171 158.721C107.184 159.545 107.444 160.345 107.917 161.02C107.32 161.761 106.723 162.585 106.078 163.451C102.118 168.868 97.316 176.137 92.986 183.537C90.9314 186.989 88.9963 190.447 87.2165 193.774C86.5222 193.182 85.877 192.535 85.2874 191.838C81.8054 187.741 79.7687 181.619 79.7687 173.801V173.819ZM104.525 122.384C104.77 125.263 105.122 128.291 105.642 131.199C106.517 136.854 107.937 142.41 109.882 147.791C110.127 148.478 110.408 149.111 110.629 149.696C109.846 150.558 109.176 151.515 108.634 152.545C108.102 152.348 107.547 152.133 106.95 151.948C102.284 150.555 97.4486 149.81 92.5798 149.732C90.0969 149.63 87.6102 149.672 85.1321 149.858C85.3113 149.433 85.4964 149.003 85.6815 148.585C89.6997 139.514 95.389 131.28 102.452 124.313C103.133 123.626 103.85 122.987 104.525 122.366V122.384Z" fill="#870F0F"/>
<path opacity="0.15" d="M140.599 101.08C133.175 98.0936 123.565 99.2881 113.078 105.344C89.5159 118.932 70.4038 152.008 70.4038 179.213C70.4038 192.949 75.2953 202.583 83.1671 206.979C90.8657 211.267 101.419 210.562 113.066 203.837C136.621 190.238 155.721 157.162 155.721 129.957C155.733 114.864 149.839 104.753 140.599 101.08ZM118.501 154.427C118.784 153.605 118.956 152.749 119.014 151.882C119.695 151.554 120.448 151.16 121.194 150.759C127.103 147.476 132.78 143.793 138.186 139.734C140.157 138.265 142.11 136.748 144.003 135.225L146.351 133.326C146.351 134.012 146.351 134.675 146.351 135.356C146.351 144.536 143.543 154.618 138.903 163.917C138.21 163.403 137.475 162.902 136.717 162.412C135.582 161.683 134.388 160.984 133.169 160.315C131.951 159.647 130.714 159.037 129.46 158.488C126.436 157.134 123.282 156.089 120.048 155.37C119.42 155.227 118.799 155.119 118.256 155.048C118.357 154.833 118.429 154.618 118.501 154.409V154.427ZM141.017 117.576C138.628 120.192 136.096 123.047 133.569 126.051C128.477 132.07 123.693 138.344 119.235 144.847C118.638 145.742 118.041 146.608 117.527 147.421C116.954 146.995 116.242 146.801 115.532 146.877C115.711 146.244 115.891 145.581 116.076 144.888C116.141 144.632 116.207 144.369 116.279 144.106C118.122 137.031 119.536 129.851 120.513 122.605C121.015 119.117 121.385 115.659 121.666 112.452C126.36 111.185 130.625 111.317 134.268 112.69C136.906 113.693 139.233 115.372 141.017 117.558V117.576ZM113.09 161.492C113.513 161.247 113.913 160.963 114.284 160.644H114.314C114.459 161.351 114.647 162.049 114.875 162.734C116.428 167.827 118.539 172.733 121.17 177.361C122.348 179.493 123.648 181.555 125.064 183.537C121.543 187.243 117.523 190.441 113.119 193.039C108.939 195.464 104.859 196.909 101.174 197.357C101.395 196.796 101.616 196.228 101.831 195.661C102.948 192.764 104.029 189.748 105.074 186.702C107.546 179.517 109.637 172.206 111.34 164.801C111.555 163.845 111.71 162.931 111.895 162.065C112.15 161.986 112.398 161.884 112.636 161.761C112.749 161.665 112.916 161.57 113.09 161.474V161.492ZM79.7687 173.819C79.7687 173.132 79.8046 172.428 79.8046 171.747C82.3907 170.863 85.1799 169.854 87.9989 168.707C93.8627 166.292 99.5316 163.429 104.955 160.142L105.486 159.808C106.084 159.437 106.639 159.079 107.171 158.721C107.184 159.545 107.444 160.345 107.917 161.02C107.32 161.761 106.723 162.585 106.078 163.451C102.118 168.868 97.316 176.137 92.986 183.537C90.9314 186.989 88.9963 190.447 87.2165 193.774C86.5222 193.182 85.877 192.535 85.2874 191.838C81.8054 187.741 79.7687 181.619 79.7687 173.801V173.819ZM104.525 122.384C104.77 125.263 105.122 128.291 105.642 131.199C106.517 136.854 107.937 142.41 109.882 147.791C110.127 148.478 110.408 149.111 110.629 149.696C109.846 150.558 109.176 151.515 108.634 152.545C108.102 152.348 107.547 152.133 106.95 151.948C102.284 150.555 97.4486 149.81 92.5798 149.732C90.0969 149.63 87.6102 149.672 85.1321 149.858C85.3113 149.433 85.4964 149.003 85.6815 148.585C89.6997 139.514 95.389 131.28 102.452 124.313C103.133 123.626 103.85 122.987 104.525 122.366V122.384Z" fill="black"/>
<path d="M107.918 161.002C107.32 161.743 106.723 162.567 106.078 163.433C102.118 168.85 97.3163 176.119 92.9862 183.519C90.9316 186.971 88.9965 190.429 87.2167 193.756C86.5224 193.164 85.8772 192.517 85.2876 191.821C86.942 188.739 88.7278 185.567 90.6211 182.39C94.9512 174.996 99.7531 167.727 103.713 162.304C104.31 161.444 104.955 160.614 105.546 159.88L105.487 159.79C106.084 159.42 106.639 159.061 107.171 158.703C107.185 159.527 107.445 160.328 107.918 161.002V161.002Z" fill="#870F0F"/>
<path opacity="0.4" d="M107.918 161.002C107.32 161.743 106.723 162.567 106.078 163.433C102.118 168.85 97.3163 176.119 92.9862 183.519C90.9316 186.971 88.9965 190.429 87.2167 193.756C86.5224 193.164 85.8772 192.517 85.2876 191.821C86.942 188.739 88.7278 185.567 90.6211 182.39C94.9512 174.996 99.7531 167.727 103.713 162.304C104.31 161.444 104.955 160.614 105.546 159.88L105.487 159.79C106.084 159.42 106.639 159.061 107.171 158.703C107.185 159.527 107.445 160.328 107.918 161.002V161.002Z" fill="black"/>
<path d="M125.059 183.537C121.537 187.243 117.517 190.441 113.114 193.039C108.933 195.464 104.854 196.909 101.168 197.357C101.389 196.796 101.61 196.228 101.825 195.661C104.971 194.831 107.986 193.569 110.784 191.91C115.187 189.311 119.207 186.113 122.729 182.408C121.299 180.427 119.981 178.367 118.781 176.238C116.187 171.648 114.104 166.787 112.57 161.743C112.737 161.665 112.904 161.57 113.078 161.474C113.501 161.229 113.901 160.945 114.272 160.626H114.302C114.447 161.333 114.635 162.031 114.863 162.716C116.418 167.816 118.534 172.727 121.17 177.361C122.346 179.493 123.645 181.555 125.059 183.537V183.537Z" fill="#870F0F"/>
<path opacity="0.3" d="M125.059 183.537C121.537 187.243 117.517 190.441 113.114 193.039C108.933 195.464 104.854 196.909 101.168 197.357C101.389 196.796 101.61 196.228 101.825 195.661C104.971 194.831 107.986 193.569 110.784 191.91C115.187 189.311 119.207 186.113 122.729 182.408" fill="black"/>
<path opacity="0.4" d="M121.17 177.361C118.547 172.72 116.446 167.803 114.905 162.699C114.677 162.014 114.489 161.316 114.344 160.608H114.314C113.943 160.927 113.543 161.211 113.119 161.456C112.946 161.552 112.779 161.647 112.612 161.725C114.131 166.774 116.2 171.641 118.781 176.238C119.964 178.366 121.264 180.426 122.676 182.408L125.065 183.537C123.648 181.555 122.348 179.493 121.17 177.361Z" fill="black"/>
<path d="M129.491 158.47C126.466 157.116 123.313 156.071 120.078 155.352C119.451 155.209 118.83 155.101 118.286 155.03C118.376 154.821 118.447 154.618 118.519 154.433C122.32 155.349 126.002 156.704 129.491 158.47V158.47Z" fill="#870F0F"/>
<path d="M146.381 135.338C146.381 144.518 143.574 154.6 138.933 163.899C138.24 163.385 137.506 162.884 136.747 162.394C141.119 153.537 143.813 143.987 144.004 135.207L146.351 133.308C146.351 133.995 146.381 134.657 146.381 135.338Z" fill="#870F0F"/>
<path opacity="0.4" d="M129.491 158.47C126.466 157.116 123.313 156.071 120.078 155.352C119.451 155.209 118.83 155.101 118.286 155.03C118.376 154.821 118.447 154.618 118.519 154.433C122.32 155.349 126.002 156.704 129.491 158.47V158.47Z" fill="black"/>
<path opacity="0.3" d="M146.381 135.338C146.381 144.518 143.574 154.6 138.933 163.899C138.24 163.385 137.506 162.884 136.747 162.394C141.119 153.537 143.813 143.987 144.004 135.207L146.351 133.308C146.351 133.995 146.381 134.657 146.381 135.338Z" fill="black"/>
<path d="M141.018 117.558C138.629 120.174 136.096 123.029 133.57 126.033C128.478 132.053 123.694 138.326 119.236 144.829C118.638 145.725 118.041 146.591 117.528 147.403C116.955 146.977 116.242 146.783 115.533 146.859C115.712 146.226 115.891 145.563 116.076 144.871L116.865 143.676C121.325 137.177 126.109 130.905 131.199 124.886C133.725 121.9 136.245 119.015 138.652 116.411C137.421 114.918 135.935 113.654 134.263 112.679C136.904 113.684 139.233 115.367 141.018 117.558Z" fill="#870F0F"/>
<path opacity="0.4" d="M141.018 117.558C138.629 120.174 136.096 123.029 133.57 126.033C128.478 132.053 123.694 138.326 119.236 144.829C118.638 145.725 118.041 146.591 117.528 147.403C116.955 146.977 116.242 146.783 115.533 146.859C115.712 146.226 115.891 145.563 116.076 144.871L116.865 143.676C121.325 137.177 126.109 130.905 131.199 124.886C133.725 121.9 136.245 119.015 138.652 116.411C137.421 114.918 135.935 113.654 134.263 112.679C136.904 113.684 139.233 115.367 141.018 117.558Z" fill="black"/>
<path d="M110.629 149.678C109.846 150.54 109.176 151.497 108.634 152.527C108.103 152.33 107.547 152.115 106.95 151.93C102.284 150.538 97.4489 149.792 92.5801 149.714C90.0972 149.612 87.6104 149.654 85.1323 149.84C85.3115 149.416 85.4966 148.986 85.6818 148.568C87.1869 148.514 88.7039 148.52 90.209 148.568C95.0775 148.649 99.9121 149.394 104.579 150.783C105.176 150.98 105.738 151.195 106.269 151.381C106.809 150.349 107.479 149.392 108.264 148.532C108.043 147.934 107.762 147.337 107.511 146.626C105.568 141.243 104.148 135.685 103.271 130.029C102.948 128.135 102.674 126.188 102.453 124.259C103.134 123.602 103.82 122.963 104.525 122.342C104.77 125.221 105.122 128.249 105.642 131.158C106.517 136.812 107.937 142.368 109.883 147.749C110.127 148.46 110.42 149.093 110.629 149.678Z" fill="#870F0F"/>
<path opacity="0.4" d="M108.264 148.556C107.479 149.415 106.809 150.373 106.269 151.404C105.738 151.201 105.176 150.986 104.579 150.807C99.9121 149.418 95.0775 148.673 90.209 148.591C88.7039 148.526 87.1869 148.52 85.6818 148.591C85.4966 149.009 85.3115 149.439 85.1323 149.864C87.6104 149.678 90.0972 149.636 92.5801 149.738C97.4489 149.816 102.284 150.561 106.95 151.954C107.547 152.151 108.103 152.366 108.634 152.551C109.176 151.521 109.846 150.564 110.629 149.702L108.264 148.556Z" fill="black"/>
<path opacity="0.3" d="M108.264 148.556C108.043 147.958 107.762 147.361 107.511 146.65C105.568 141.267 104.148 135.709 103.271 130.053C102.948 128.159 102.674 126.212 102.453 124.283C103.134 123.626 103.82 122.987 104.525 122.366C104.77 125.245 105.122 128.273 105.642 131.181C106.517 136.836 107.937 142.392 109.882 147.773C110.127 148.46 110.408 149.093 110.629 149.678" fill="black"/>
<path d="M133.569 117.337L151.576 127.723C151 127.398 150.402 127.114 149.785 126.875C144.547 124.791 137.774 125.615 130.38 129.861C113.776 139.447 100.32 162.77 100.32 181.942C100.32 191.331 103.557 197.984 108.801 201.209L91.0089 190.919C85.5978 187.765 82.2412 181.052 82.2412 171.496C82.2412 152.324 95.7033 129.007 112.307 119.421C119.701 115.151 126.474 114.327 131.706 116.435C132.339 116.694 132.954 116.998 133.545 117.343L133.569 117.337Z" fill="#455A64"/>
<path d="M92.6216 188.183C87.9929 185.49 85.4546 179.565 85.4546 171.514C85.4546 153.381 98.2298 131.253 113.932 122.187C118.112 119.798 122.198 118.514 125.775 118.514C127.408 118.499 129.029 118.793 130.553 119.38C131.043 119.582 131.518 119.817 131.975 120.084L137.714 123.399C134.592 124.229 131.597 125.483 128.815 127.126C111.363 137.208 97.1607 161.803 97.1607 181.96C97.1243 185.185 97.5261 188.399 98.3553 191.516L92.6216 188.183Z" fill="#37474F"/>
<path d="M149.803 126.875C144.571 124.785 137.798 125.615 130.404 129.862C113.8 139.453 100.338 162.764 100.338 181.942C100.338 191.636 103.785 198.408 109.339 201.508C114.762 204.53 122.198 204.034 130.404 199.292C147.008 189.736 160.47 166.396 160.47 147.224C160.47 136.605 156.325 129.479 149.803 126.875Z" fill="#37474F"/>
<path d="M82.3491 169.215L100.434 179.655C100.506 178.281 100.649 176.889 100.846 175.474L82.7672 165.034C82.5522 166.451 82.4128 167.845 82.3491 169.215Z" fill="#455A64"/>
<path d="M106.532 123.435L124.611 133.875C125.71 132.997 126.832 132.173 127.967 131.408L109.888 120.974C108.754 121.733 107.631 122.581 106.532 123.435Z" fill="#455A64"/>
<path d="M97.973 131.94C97.1548 132.92 96.3664 133.935 95.584 134.968L113.669 145.408C114.433 144.369 115.228 143.36 116.058 142.374L97.973 131.94Z" fill="#455A64"/>
<path d="M88.2616 147.248C87.7121 148.406 87.1985 149.577 86.7207 150.759L104.8 161.199C105.277 160.005 105.791 158.834 106.34 157.688L88.2616 147.248Z" fill="#455A64"/>
<path d="M151.577 127.729C151.002 127.399 150.403 127.114 149.785 126.875C144.816 124.898 138.491 125.537 131.545 129.264C134.185 127.813 138.276 125.615 142.893 122.754L151.577 127.729Z" fill="#263238"/>
<path d="M130.404 129.879C139.046 125.024 173.806 107.811 173.806 83.1802L155.733 72.7402C155.733 97.3709 120.973 114.584 112.331 119.439L115.544 121.291L118.274 119.499L130.44 126.529L127.28 128.076L130.404 129.879Z" fill="#455A64"/>
<path d="M118.274 119.499C130.422 112.768 154.844 98.1474 158.248 77.566L170.826 84.8346C169.393 105.231 141.698 120.371 131.103 126.165L130.44 126.529L118.274 119.499Z" fill="#37474F"/>
<path d="M140.784 100.483C139.872 101.311 138.943 102.121 137.995 102.914L156.116 113.324C157.059 112.535 157.991 111.723 158.899 110.887L140.784 100.483Z" fill="#455A64"/>
<path d="M126.456 111.269C125.303 112.004 124.169 112.702 123.076 113.365L141.202 123.776C142.293 123.115 143.42 122.416 144.583 121.679L126.456 111.269Z" fill="#455A64"/>
<path d="M151.547 87.4864C150.974 88.4977 150.353 89.4931 149.684 90.4726L167.786 100.871C168.449 99.8973 169.07 98.9118 169.644 97.8846L151.547 87.4864Z" fill="#455A64"/>
<path d="M118.274 119.499C115.443 121.052 112.976 122.754 112.976 122.754L124.921 129.652C124.921 129.652 127.424 128.183 130.44 126.529L118.274 119.499Z" fill="#37474F"/>
<path d="M157.185 110.636C149.492 106.348 138.939 107.052 127.293 113.772C103.737 127.377 84.6367 160.459 84.6367 187.658C84.6367 202.75 90.5137 212.856 99.7711 216.553C107.195 219.539 116.805 218.345 127.293 212.288C150.854 198.683 169.954 165.607 169.954 138.402C169.954 124.659 165.063 115.038 157.185 110.636ZM157.609 127.132C155.22 129.748 152.682 132.603 150.155 135.607C145.065 141.628 140.281 147.901 135.821 154.403C135.224 155.299 134.627 156.165 134.113 156.977C133.54 156.551 132.828 156.357 132.118 156.433C132.298 155.8 132.483 155.137 132.662 154.444C132.339 154.928 132.035 155.394 131.742 155.848C131.168 155.424 130.457 155.23 129.747 155.305C129.998 154.444 130.249 153.513 130.5 152.533C132.341 145.458 133.755 138.278 134.734 131.032C135.236 127.532 135.606 124.08 135.887 120.879C141.645 119.326 146.781 119.869 150.86 122.241C153.498 123.257 155.823 124.948 157.603 127.144L157.609 127.132ZM99.3471 158.273C103.779 147.839 110.695 137.966 118.734 130.799C118.824 131.803 118.925 132.818 119.039 133.839C119.719 133.182 120.41 132.543 121.111 131.922C121.356 134.801 121.708 137.829 122.228 140.737C123.102 146.393 124.524 151.949 126.474 157.329C126.719 158.016 126.994 158.649 127.221 159.234C126.436 160.096 125.764 161.053 125.22 162.083C124.695 161.886 124.133 161.671 123.536 161.486C118.87 160.094 114.035 159.348 109.166 159.27C106.683 159.168 104.196 159.21 101.718 159.396C101.897 158.972 102.082 158.542 102.274 158.124C101.288 158.165 100.315 158.219 99.3471 158.285V158.273ZM103.809 203.33C103.111 202.74 102.464 202.092 101.873 201.395L101.437 202.207C96.7908 198.259 93.9897 191.426 93.9897 182.247C93.9897 181.566 94.0255 180.861 94.0255 180.174C96.6057 179.296 99.4008 178.287 102.22 177.134C108.084 174.721 113.753 171.857 119.176 168.57C119.952 168.08 120.699 167.614 121.392 167.148C121.407 167.936 121.643 168.703 122.073 169.364C122.67 168.994 123.225 168.635 123.757 168.277C123.771 169.101 124.031 169.902 124.503 170.576C123.906 171.317 123.309 172.141 122.67 173.007C118.704 178.424 113.902 185.693 109.578 193.093C107.517 196.557 105.588 200.015 103.809 203.342V203.33ZM129.682 202.613C125.471 205.038 121.422 206.483 117.707 206.931C117.928 206.37 118.155 205.802 118.37 205.235C117.374 205.492 116.362 205.681 115.342 205.802C116.679 202.404 117.987 198.802 119.236 195.135C121.71 187.949 123.802 180.636 125.501 173.228C125.722 172.278 125.877 171.359 126.062 170.499C126.498 170.344 126.917 170.144 127.31 169.901C127.734 169.656 128.134 169.372 128.505 169.053H128.535C128.685 169.758 128.875 170.454 129.102 171.138L129.156 171.311C129.317 171.233 129.484 171.138 129.664 171.042C130.087 170.797 130.487 170.513 130.858 170.194H130.894C131.037 170.902 131.224 171.6 131.455 172.284C132.991 177.39 135.092 182.308 137.721 186.947C138.899 189.078 140.197 191.139 141.609 193.123C138.091 196.822 134.077 200.016 129.682 202.613ZM153.339 171.968C153.279 172.093 153.213 172.219 153.148 172.344C151.321 171.019 149.405 169.822 147.414 168.761C146.978 168.516 146.53 168.283 146.082 168.056C143.057 166.699 139.901 165.654 136.663 164.938C136.036 164.795 135.415 164.687 134.872 164.616C134.959 164.421 135.037 164.221 135.105 164.018L134.31 163.791C133.719 163.654 133.121 163.548 132.519 163.475C132.934 162.464 133.186 161.394 133.265 160.304C133.946 159.981 134.699 159.581 135.445 159.187C141.352 155.902 147.028 152.216 152.431 148.155C155.238 146.071 158.009 143.855 160.595 141.747C160.595 142.434 160.631 143.103 160.631 143.783C160.631 144.112 160.631 144.44 160.631 144.775C161.432 144.136 162.214 143.497 162.984 142.876C162.984 143.563 162.984 144.225 162.984 144.906C162.984 154.086 160.183 164.168 155.537 173.467C154.832 172.965 154.099 172.47 153.339 171.98V171.968Z" fill="#870F0F"/>
<path opacity="0.4" d="M157.185 110.636C149.492 106.348 138.939 107.052 127.293 113.772C103.737 127.377 84.6367 160.459 84.6367 187.658C84.6367 202.75 90.5137 212.856 99.7711 216.553C107.195 219.539 116.805 218.345 127.293 212.288C150.854 198.683 169.954 165.607 169.954 138.402C169.954 124.659 165.063 115.038 157.185 110.636ZM157.609 127.132C155.22 129.748 152.682 132.603 150.155 135.607C145.065 141.628 140.281 147.901 135.821 154.403C135.224 155.299 134.627 156.165 134.113 156.977C133.54 156.551 132.828 156.357 132.118 156.433C132.298 155.8 132.483 155.137 132.662 154.444C132.339 154.928 132.035 155.394 131.742 155.848C131.168 155.424 130.457 155.23 129.747 155.305C129.998 154.444 130.249 153.513 130.5 152.533C132.341 145.458 133.755 138.278 134.734 131.032C135.236 127.532 135.606 124.08 135.887 120.879C141.645 119.326 146.781 119.869 150.86 122.241C153.498 123.257 155.823 124.948 157.603 127.144L157.609 127.132ZM99.3471 158.273C103.779 147.839 110.695 137.966 118.734 130.799C118.824 131.803 118.925 132.818 119.039 133.839C119.719 133.182 120.41 132.543 121.111 131.922C121.356 134.801 121.708 137.829 122.228 140.737C123.102 146.393 124.524 151.949 126.474 157.329C126.719 158.016 126.994 158.649 127.221 159.234C126.436 160.096 125.764 161.053 125.22 162.083C124.695 161.886 124.133 161.671 123.536 161.486C118.87 160.094 114.035 159.348 109.166 159.27C106.683 159.168 104.196 159.21 101.718 159.396C101.897 158.972 102.082 158.542 102.274 158.124C101.288 158.165 100.315 158.219 99.3471 158.285V158.273ZM103.809 203.33C103.111 202.74 102.464 202.092 101.873 201.395L101.437 202.207C96.7908 198.259 93.9897 191.426 93.9897 182.247C93.9897 181.566 94.0255 180.861 94.0255 180.174C96.6057 179.296 99.4008 178.287 102.22 177.134C108.084 174.721 113.753 171.857 119.176 168.57C119.952 168.08 120.699 167.614 121.392 167.148C121.407 167.936 121.643 168.703 122.073 169.364C122.67 168.994 123.225 168.635 123.757 168.277C123.771 169.101 124.031 169.902 124.503 170.576C123.906 171.317 123.309 172.141 122.67 173.007C118.704 178.424 113.902 185.693 109.578 193.093C107.517 196.557 105.588 200.015 103.809 203.342V203.33ZM129.682 202.613C125.471 205.038 121.422 206.483 117.707 206.931C117.928 206.37 118.155 205.802 118.37 205.235C117.374 205.492 116.362 205.681 115.342 205.802C116.679 202.404 117.987 198.802 119.236 195.135C121.71 187.949 123.802 180.636 125.501 173.228C125.722 172.278 125.877 171.359 126.062 170.499C126.498 170.344 126.917 170.144 127.31 169.901C127.734 169.656 128.134 169.372 128.505 169.053H128.535C128.685 169.758 128.875 170.454 129.102 171.138L129.156 171.311C129.317 171.233 129.484 171.138 129.664 171.042C130.087 170.797 130.487 170.513 130.858 170.194H130.894C131.037 170.902 131.224 171.6 131.455 172.284C132.991 177.39 135.092 182.308 137.721 186.947C138.899 189.078 140.197 191.139 141.609 193.123C138.091 196.822 134.077 200.016 129.682 202.613ZM153.339 171.968C153.279 172.093 153.213 172.219 153.148 172.344C151.321 171.019 149.405 169.822 147.414 168.761C146.978 168.516 146.53 168.283 146.082 168.056C143.057 166.699 139.901 165.654 136.663 164.938C136.036 164.795 135.415 164.687 134.872 164.616C134.959 164.421 135.037 164.221 135.105 164.018L134.31 163.791C133.719 163.654 133.121 163.548 132.519 163.475C132.934 162.464 133.186 161.394 133.265 160.304C133.946 159.981 134.699 159.581 135.445 159.187C141.352 155.902 147.028 152.216 152.431 148.155C155.238 146.071 158.009 143.855 160.595 141.747C160.595 142.434 160.631 143.103 160.631 143.783C160.631 144.112 160.631 144.44 160.631 144.775C161.432 144.136 162.214 143.497 162.984 142.876C162.984 143.563 162.984 144.225 162.984 144.906C162.984 154.086 160.183 164.168 155.537 173.467C154.832 172.965 154.099 172.47 153.339 171.98V171.968Z" fill="white"/>
<path d="M157.185 110.636C149.761 107.65 140.151 108.844 129.663 114.9C106.102 128.506 87.0015 161.582 87.0015 188.787C87.0015 202.523 91.893 212.157 99.7707 216.553C107.463 220.841 118.017 220.136 129.663 213.411C153.219 199.812 172.319 166.736 172.319 139.531C172.319 124.45 166.442 114.339 157.185 110.636ZM135.086 163.983C135.369 163.161 135.542 162.305 135.6 161.438C136.287 161.11 137.039 160.716 137.786 160.315C143.693 157.032 149.368 153.348 154.772 149.29C156.743 147.821 158.696 146.304 160.589 144.781C161.389 144.142 162.172 143.503 162.942 142.882C162.942 143.568 162.942 144.231 162.942 144.912C162.942 154.092 160.141 164.174 155.494 173.473C154.802 172.959 154.075 172.458 153.315 171.968C152.174 171.239 150.979 170.54 149.761 169.872C148.542 169.203 147.312 168.593 146.058 168.044C143.033 166.687 139.877 165.642 136.639 164.926C136.012 164.783 135.391 164.675 134.847 164.604C134.937 164.405 135.017 164.201 135.086 163.995V163.983ZM157.603 127.144C155.214 129.76 152.675 132.615 150.149 135.619C145.059 141.64 140.275 147.913 135.815 154.415C135.218 155.31 134.62 156.176 134.107 156.989C133.534 156.563 132.822 156.369 132.112 156.445C132.291 155.812 132.476 155.149 132.656 154.456C132.727 154.2 132.787 153.937 132.859 153.674C134.704 146.599 136.119 139.419 137.093 132.173C137.595 128.685 137.971 125.227 138.252 122.02C142.94 120.753 147.211 120.885 150.854 122.258C153.492 123.269 155.819 124.954 157.603 127.144V127.144ZM129.675 171.06C130.099 170.815 130.499 170.531 130.87 170.212H130.906C131.048 170.92 131.236 171.618 131.467 172.302C133.002 177.408 135.104 182.326 137.732 186.965C138.91 189.095 140.208 191.157 141.62 193.141C138.098 196.846 134.078 200.044 129.675 202.643C125.465 205.068 121.415 206.513 117.7 206.961C117.921 206.4 118.148 205.832 118.363 205.265C119.474 202.368 120.555 199.352 121.6 196.306C124.072 189.121 126.163 181.81 127.866 174.405C128.081 173.449 128.236 172.535 128.427 171.669C128.682 171.59 128.93 171.488 129.168 171.365C129.335 171.251 129.532 171.156 129.681 171.06H129.675ZM96.3485 183.387C96.3485 182.701 96.3843 181.996 96.3843 181.315C98.9704 180.431 101.76 179.422 104.585 178.275C110.447 175.86 116.113 172.997 121.535 169.71L122.066 169.376C122.663 169.006 123.219 168.647 123.75 168.289C123.764 169.113 124.024 169.913 124.497 170.588C123.9 171.329 123.303 172.153 122.663 173.019C118.698 178.436 113.896 185.705 109.572 193.105C107.511 196.557 105.582 200.015 103.802 203.342C103.105 202.751 102.457 202.104 101.867 201.407C98.3911 197.327 96.3545 191.205 96.3545 183.387H96.3485ZM121.105 131.952C121.35 134.831 121.702 137.859 122.222 140.767C123.096 146.423 124.518 151.979 126.468 157.359C126.713 158.046 126.988 158.679 127.215 159.264C126.43 160.126 125.758 161.083 125.214 162.113C124.688 161.916 124.127 161.701 123.529 161.516C118.863 160.124 114.028 159.378 109.16 159.3C106.677 159.198 104.19 159.24 101.712 159.426C101.891 159.002 102.076 158.571 102.267 158.153C106.283 149.083 111.971 140.848 119.032 133.881C119.717 133.216 120.41 132.573 121.111 131.952H121.105Z" fill="#870F0F"/>
<path d="M124.503 170.588C123.906 171.329 123.309 172.153 122.67 173.019C118.704 178.436 113.902 185.705 109.578 193.105C107.518 196.557 105.588 200.015 103.809 203.342C103.111 202.752 102.464 202.104 101.874 201.407C103.534 198.325 105.32 195.153 107.207 191.976C111.537 184.582 116.339 177.313 120.299 171.89C120.896 171.03 121.541 170.2 122.138 169.465L122.073 169.376C122.67 169.006 123.225 168.647 123.757 168.289C123.771 169.113 124.031 169.914 124.503 170.588Z" fill="#870F0F"/>
<path opacity="0.3" d="M124.503 170.588C123.906 171.329 123.309 172.153 122.67 173.019C118.704 178.436 113.902 185.705 109.578 193.105C107.518 196.557 105.588 200.015 103.809 203.342C103.111 202.752 102.464 202.104 101.874 201.407C103.534 198.325 105.32 195.153 107.207 191.976C111.537 184.582 116.339 177.313 120.299 171.89C120.896 171.03 121.541 170.2 122.138 169.465L122.073 169.376C122.67 169.006 123.225 168.647 123.757 168.289C123.771 169.113 124.031 169.914 124.503 170.588Z" fill="black"/>
<path d="M141.645 193.123C138.122 196.828 134.102 200.026 129.7 202.625C125.489 205.05 121.44 206.495 117.725 206.943C117.946 206.382 118.173 205.814 118.388 205.247C121.533 204.416 124.548 203.154 127.346 201.496C131.748 198.895 135.767 195.697 139.291 191.994C137.875 190.013 136.573 187.953 135.391 185.824C132.799 181.234 130.718 176.373 129.186 171.329C129.347 171.251 129.514 171.156 129.694 171.06C130.117 170.815 130.517 170.531 130.888 170.212H130.924C131.066 170.92 131.254 171.618 131.485 172.302C133.021 177.408 135.122 182.326 137.751 186.965C138.931 189.09 140.231 191.145 141.645 193.123V193.123Z" fill="#870F0F"/>
<path opacity="0.2" d="M141.645 193.123C138.122 196.828 134.102 200.026 129.7 202.625C125.489 205.05 121.44 206.495 117.725 206.943C117.946 206.382 118.173 205.814 118.388 205.247C121.533 204.416 124.548 203.154 127.346 201.496C131.748 198.895 135.767 195.698 139.291 191.994" fill="black"/>
<path opacity="0.3" d="M137.756 186.947C135.128 182.308 133.026 177.39 131.491 172.285C131.26 171.6 131.072 170.902 130.929 170.194H130.894C130.523 170.513 130.123 170.797 129.699 171.042C129.52 171.138 129.353 171.233 129.191 171.311C130.723 176.355 132.804 181.216 135.397 185.806C136.579 187.935 137.881 189.995 139.297 191.976L141.686 193.105C140.26 191.128 138.948 189.073 137.756 186.947V186.947Z" fill="black"/>
<path d="M146.082 168.056C143.056 166.699 139.9 165.654 136.663 164.938C136.036 164.795 135.415 164.687 134.871 164.616C134.958 164.421 135.036 164.221 135.104 164.018C138.907 164.936 142.59 166.291 146.082 168.056V168.056Z" fill="#870F0F"/>
<path d="M162.978 144.924C162.978 154.104 160.177 164.186 155.531 173.485C154.838 172.971 154.111 172.47 153.351 171.98C157.717 163.123 160.416 153.573 160.601 144.793C161.402 144.154 162.184 143.515 162.954 142.894C162.942 143.58 162.978 144.243 162.978 144.924Z" fill="#870F0F"/>
<path opacity="0.3" d="M146.082 168.056C143.056 166.699 139.9 165.654 136.663 164.938C136.036 164.795 135.415 164.687 134.871 164.616C134.958 164.421 135.036 164.221 135.104 164.018C138.907 164.936 142.59 166.291 146.082 168.056V168.056Z" fill="black"/>
<path opacity="0.2" d="M162.978 144.924C162.978 154.104 160.177 164.186 155.531 173.485C154.838 172.971 154.111 172.47 153.351 171.98C157.717 163.123 160.416 153.573 160.601 144.793C161.402 144.154 162.184 143.515 162.954 142.894C162.942 143.58 162.978 144.243 162.978 144.924Z" fill="black"/>
<path d="M157.603 127.144C155.214 129.76 152.676 132.615 150.149 135.619C145.059 141.64 140.275 147.913 135.815 154.415C135.218 155.311 134.621 156.177 134.107 156.989C133.534 156.563 132.822 156.369 132.112 156.445C132.291 155.812 132.477 155.149 132.656 154.456L133.45 153.262C137.908 146.761 142.692 140.49 147.784 134.472C150.311 131.486 152.831 128.601 155.232 125.997C154.001 124.505 152.517 123.241 150.848 122.265C153.488 123.273 155.817 124.955 157.603 127.144V127.144Z" fill="#870F0F"/>
<path opacity="0.3" d="M157.603 127.144C155.214 129.76 152.676 132.615 150.149 135.619C145.059 141.64 140.275 147.913 135.815 154.415C135.218 155.311 134.621 156.177 134.107 156.989C133.534 156.563 132.822 156.369 132.112 156.445C132.291 155.812 132.477 155.149 132.656 154.456L133.45 153.262C137.908 146.761 142.692 140.49 147.784 134.472C150.311 131.486 152.831 128.601 155.232 125.997C154.001 124.505 152.517 123.241 150.848 122.265C153.488 123.273 155.817 124.955 157.603 127.144V127.144Z" fill="black"/>
<path d="M127.221 159.264C126.436 160.126 125.764 161.083 125.22 162.113C124.694 161.916 124.133 161.701 123.535 161.516C118.869 160.124 114.034 159.378 109.166 159.3C106.683 159.198 104.196 159.24 101.718 159.426C101.897 159.002 102.082 158.572 102.273 158.153C103.778 158.1 105.295 158.106 106.8 158.153C111.669 158.237 116.504 158.985 121.17 160.375C121.768 160.572 122.323 160.787 122.855 160.972C123.396 159.942 124.066 158.985 124.849 158.124C124.628 157.526 124.348 156.929 124.097 156.218C122.156 150.835 120.738 145.276 119.862 139.621C119.534 137.727 119.265 135.78 119.038 133.851C119.719 133.194 120.41 132.555 121.111 131.934C121.355 134.813 121.708 137.841 122.227 140.749C123.102 146.405 124.524 151.961 126.474 157.341C126.719 158.046 126.994 158.679 127.221 159.264Z" fill="#870F0F"/>
<path opacity="0.3" d="M124.849 158.141C124.066 159.003 123.396 159.96 122.855 160.99C122.323 160.787 121.762 160.572 121.17 160.393C116.503 159.005 111.669 158.259 106.8 158.177C105.295 158.112 103.778 158.106 102.273 158.177C102.082 158.595 101.897 159.025 101.718 159.449C104.196 159.264 106.683 159.222 109.166 159.324C114.041 159.388 118.884 160.122 123.559 161.504C124.157 161.701 124.718 161.916 125.244 162.101C125.788 161.071 126.46 160.114 127.244 159.252L124.849 158.141Z" fill="black"/>
<path opacity="0.2" d="M124.849 158.141C124.628 157.544 124.348 156.947 124.097 156.236C122.156 150.852 120.738 145.294 119.862 139.639C119.534 137.745 119.265 135.798 119.038 133.869C119.719 133.212 120.41 132.573 121.111 131.952C121.355 134.831 121.708 137.859 122.227 140.767C123.102 146.422 124.524 151.979 126.474 157.359C126.719 158.046 126.994 158.679 127.22 159.264" fill="black"/>
<path d="M75.1392 176.059L74.2247 176.586V146.81L63.1727 140.431L49.5012 148.321L60.7779 105.927L49.7337 99.5482L30.7222 110.523L0 225.398V241.867L11.0442 248.245L45.5253 228.327V240.193L56.5772 246.571L74.2014 236.357V211.742L86.1601 204.836V182.438L75.1392 176.059ZM45.5253 193.18L36.1707 198.605L45.5253 163.403V193.18Z" fill="#870F0F"/>
<path opacity="0.3" d="M75.1392 176.059L74.2246 176.586V146.81L63.1727 140.431L49.5012 148.321L60.7779 105.927L49.7337 99.5482L30.7222 110.523L0 225.398V241.867L11.0442 248.245L45.5253 228.327V240.193L56.5772 246.571L74.2014 236.357V211.742L86.1601 204.836V182.438L75.1392 176.059ZM45.5253 193.18L36.1707 198.605L45.5253 163.403V193.18Z" fill="white"/>
<path d="M74.2171 189.343V146.81L56.5387 157.017V199.558L32.1252 213.648L60.7781 105.927L41.7666 116.901L11.0444 231.776V248.214L56.5387 221.956V246.571L74.2171 236.357V211.742L86.1836 204.836V182.438L74.2171 189.343Z" fill="#870F0F"/>
<path opacity="0.3" d="M74.2171 189.343V146.81L56.5387 157.017V199.558L32.1252 213.648L60.7781 105.927L41.7666 116.901L11.0444 231.776V248.214L56.5387 221.956V246.571L74.2171 236.357V211.742L86.1836 204.836V182.438L74.2171 189.343Z" fill="#870F0F"/>
<path d="M60.7778 105.927L49.7337 99.5482L30.7222 110.523L41.7663 116.901L60.7778 105.927Z" fill="#870F0F"/>
<path opacity="0.5" d="M60.7778 105.927L49.7337 99.5482L30.7222 110.523L41.7663 116.901L60.7778 105.927Z" fill="white"/>
<path d="M63.1727 140.431L74.2169 146.809L56.5385 157.017L48.4316 152.335L49.5012 148.321L63.1727 140.431Z" fill="#870F0F"/>
<path opacity="0.5" d="M63.1727 140.431L74.2169 146.809L56.5385 157.017L48.4316 152.335L49.5012 148.321L63.1727 140.431Z" fill="white"/>
<path d="M56.5385 199.558L45.4865 193.18L36.1319 198.582L32.125 213.648L56.5385 199.558Z" fill="#870F0F"/>
<path opacity="0.5" d="M56.5385 199.558L45.4865 193.18L36.1319 198.582L32.125 213.648L56.5385 199.558Z" fill="white"/>
<path d="M86.1833 182.438L75.1391 176.059L74.2168 176.586V189.343L86.1833 182.438Z" fill="#870F0F"/>
<path opacity="0.5" d="M74.2168 189.343L86.1833 182.438L75.1391 176.059L74.2168 176.586V189.343Z" fill="white"/>
<path d="M11.0442 231.776L0 225.398L30.7222 110.523L41.7664 116.901L11.0442 231.776Z" fill="#870F0F"/>
<path opacity="0.15" d="M11.0442 231.776L0 225.398L30.7222 110.523L41.7664 116.901L11.0442 231.776Z" fill="white"/>
<path d="M83.3122 78.5059L82.3405 84.7356L89.4175 80.0878L88.8012 84.0392L81.7242 88.687L80.6969 95.2726L88.6774 90.0316L88.0444 94.0898L75.8478 102.1L79.7292 77.2165L91.9257 69.2066L91.2927 73.2648L83.3122 78.5059ZM98.6906 72.1447C99.3955 70.7445 100.226 69.4643 101.182 68.304C102.158 67.1306 103.208 66.1747 104.332 65.4363L103.516 70.6693L102.402 71.401C101.076 72.2712 100.015 73.2983 99.2179 74.4823C98.4406 75.6531 97.9095 77.1522 97.6244 78.9796L96.0919 88.8047L91.8758 91.5735L94.952 71.8521L99.1681 69.0833L98.6906 72.1447ZM110.866 64.1487C111.571 62.7485 112.401 61.4683 113.357 60.308C114.333 59.1346 115.383 58.1787 116.507 57.4403L115.691 62.6733L114.577 63.405C113.252 64.2752 112.191 65.3023 111.393 66.4863C110.616 67.6571 110.085 69.1562 109.8 70.9836L108.267 80.8087L104.051 83.5775L107.127 63.8562L111.343 61.0873L110.866 64.1487ZM123.585 71.0366C121.979 72.0915 120.598 72.6255 119.443 72.6387C118.291 72.6282 117.464 72.0955 116.962 71.0408C116.48 69.9729 116.396 68.4303 116.711 66.4131C117.025 64.3958 117.674 62.372 118.658 60.3416C119.661 58.298 120.88 56.4323 122.315 54.7447C123.753 53.0333 125.275 51.6502 126.881 50.5954C128.488 49.5406 129.877 49.0119 131.048 49.0092C132.224 48.9828 133.062 49.4969 133.565 50.5517C134.087 51.5932 134.191 53.1226 133.876 55.1399C133.562 57.1571 132.892 59.1941 131.869 61.2509C130.865 63.2945 129.634 65.1786 128.176 66.9032C126.741 68.5908 125.211 69.9687 123.585 71.0366ZM124.262 66.6937C125.025 66.1926 125.771 65.511 126.5 64.6487C127.253 63.7495 127.899 62.729 128.438 61.5872C128.976 60.4454 129.343 59.2456 129.54 57.9878C129.832 56.113 129.634 54.9541 128.947 54.5111C128.283 54.0312 127.348 54.1868 126.144 54.9779C124.939 55.769 123.846 56.9451 122.863 58.5062C121.905 60.0303 121.279 61.7298 120.987 63.6047C120.695 65.4795 120.86 66.67 121.484 67.1763C122.132 67.6457 123.058 67.4848 124.262 66.6937ZM142.245 43.5407C142.95 42.1405 143.781 40.8603 144.737 39.7C145.713 38.5266 146.763 37.5707 147.887 36.8323L147.071 42.0652L145.956 42.797C144.631 43.6672 143.57 44.6943 142.773 45.8783C141.996 47.0491 141.464 48.5482 141.179 50.3755L139.647 60.2006L135.431 62.9695L138.507 43.2481L142.723 40.4793L142.245 43.5407Z" fill="white"/>
</svg>
