<svg width="160" height="61" viewBox="0 0 160 61" fill="none" xmlns="http://www.w3.org/2000/svg">
<path fill-rule="evenodd" clip-rule="evenodd" d="M50.5026 13.5478L23.4495 22.3375C23.132 22.5421 22.7674 22.6621 22.3905 22.6861L13.0977 25.6999H51.747C52.3321 25.6999 52.8933 25.9323 53.307 26.3461C53.7208 26.7598 53.9532 27.321 53.9532 27.9061V49.9687C53.9532 52.8944 52.791 55.7002 50.7222 57.769C48.6535 59.8378 45.8476 61 42.9219 61H12.0343C9.10865 61 6.3028 59.8378 4.23403 57.769C2.16526 55.7002 1.00304 52.8944 1.00304 49.9687V27.9061C1.00304 27.4384 1.14865 27.0016 1.40016 26.6397L0.539725 23.9834C-0.36413 21.2011 -0.125781 18.1737 1.20234 15.5671C2.53047 12.9605 4.83959 10.9882 7.62181 10.084L36.9959 0.539725C39.7782 -0.36413 42.8057 -0.125781 45.4123 1.20234C48.0189 2.53047 49.9912 4.83959 50.8953 7.62181L51.919 10.7679C52.0998 11.3244 52.0521 11.9299 51.7865 12.4512C51.5209 12.9725 51.0591 13.367 50.5026 13.5478ZM33.9822 14.2759L39.6523 4.45363C39.213 4.50456 38.7799 4.59917 38.3594 4.73603L32.8658 6.51868L27.0942 16.513L33.9778 14.2759H33.9822ZM44.1089 5.54352C44.0817 5.59912 44.0523 5.65358 44.0206 5.70678L40.2524 12.2373L47.0388 10.031L46.699 8.98528C46.2454 7.58036 45.3333 6.36837 44.1089 5.54352ZM26.5912 8.55726L19.7077 10.7944L13.9317 20.7888L20.8152 18.5516L26.5956 8.55726H26.5912ZM5.07579 23.6701L7.66594 22.8317L13.4331 12.833L8.98528 14.2803C7.31595 14.8228 5.93047 16.0062 5.1336 17.5701C4.33672 19.1341 4.19371 20.9506 4.73603 22.6199L5.07579 23.6701ZM19.1685 46.2026L12.0929 38.1689L19.1685 30.0984H28.234L21.1585 38.1689L28.234 46.2026H19.1685ZM44.8041 47.1613L37.7286 55.195H28.6631L35.7386 47.1613L28.6631 39.0908H37.7286L44.8041 47.1613Z" fill="white"/>
<path d="M66.9973 14.8204C66.9973 12.8947 67.4315 11.1672 68.3 9.63791C69.1684 8.08978 70.3484 6.88147 71.8399 6.01301C73.3503 5.14454 75.0212 4.71031 76.8525 4.71031C79.0048 4.71031 80.8833 5.2295 82.4881 6.26788C84.0929 7.30627 85.2634 8.77889 85.9997 10.6857H82.9129C82.3654 9.49632 81.5724 8.58065 80.534 7.93874C79.5145 7.29683 78.2874 6.97587 76.8525 6.97587C75.4743 6.97587 74.2377 7.29683 73.1426 7.93874C72.0476 8.58065 71.1886 9.49632 70.5655 10.6857C69.9425 11.8563 69.631 13.2345 69.631 14.8204C69.631 16.3874 69.9425 17.7656 70.5655 18.9551C71.1886 20.1256 72.0476 21.0318 73.1426 21.6737C74.2377 22.3156 75.4743 22.6366 76.8525 22.6366C78.2874 22.6366 79.5145 22.3251 80.534 21.7021C81.5724 21.0601 82.3654 20.1445 82.9129 18.9551H85.9997C85.2634 20.843 84.0929 22.3062 82.4881 23.3446C80.8833 24.3641 79.0048 24.8739 76.8525 24.8739C75.0212 24.8739 73.3503 24.4491 71.8399 23.5995C70.3484 22.731 69.1684 21.5321 68.3 20.0029C67.4315 18.4736 66.9973 16.7461 66.9973 14.8204ZM91.1669 6.66436C90.6761 6.66436 90.2607 6.49444 89.9209 6.15461C89.581 5.81477 89.4111 5.39942 89.4111 4.90854C89.4111 4.41767 89.581 4.00232 89.9209 3.66248C90.2607 3.32265 90.6761 3.15273 91.1669 3.15273C91.6389 3.15273 92.0354 3.32265 92.3564 3.66248C92.6962 4.00232 92.8661 4.41767 92.8661 4.90854C92.8661 5.39942 92.6962 5.81477 92.3564 6.15461C92.0354 6.49444 91.6389 6.66436 91.1669 6.66436ZM92.413 9.1848V24.7039H89.8359V9.1848H92.413ZM104.367 8.90161C106.254 8.90161 107.784 9.47744 108.954 10.6291C110.125 11.7619 110.71 13.4044 110.71 15.5567V24.7039H108.161V15.9249C108.161 14.3767 107.774 13.1967 107 12.3849C106.226 11.5542 105.169 11.1389 103.828 11.1389C102.469 11.1389 101.384 11.5636 100.572 12.4132C99.7787 13.2628 99.3823 14.4994 99.3823 16.1231V24.7039H96.8052V9.1848H99.3823V11.3937C99.892 10.6008 100.581 9.98719 101.45 9.55296C102.337 9.11872 103.309 8.90161 104.367 8.90161ZM129.08 16.3497C129.08 16.8405 129.051 17.3597 128.995 17.9072H116.591C116.685 19.4365 117.204 20.6354 118.148 21.5038C119.111 22.3534 120.272 22.7782 121.632 22.7782C122.745 22.7782 123.671 22.5233 124.407 22.0136C125.162 21.4849 125.691 20.7864 125.993 19.9179H128.768C128.353 21.4094 127.522 22.6272 126.276 23.5712C125.03 24.4963 123.482 24.9588 121.632 24.9588C120.159 24.9588 118.837 24.6284 117.667 23.9676C116.515 23.3068 115.609 22.3723 114.948 21.164C114.287 19.9368 113.957 18.5208 113.957 16.916C113.957 15.3113 114.278 13.9047 114.92 12.6964C115.562 11.4881 116.458 10.563 117.61 9.92111C118.781 9.26032 120.121 8.92992 121.632 8.92992C123.104 8.92992 124.407 9.25088 125.54 9.89279C126.672 10.5347 127.541 11.422 128.145 12.5548C128.768 13.6687 129.08 14.9337 129.08 16.3497ZM126.418 15.8116C126.418 14.8298 126.2 13.9897 125.766 13.2911C125.332 12.5737 124.737 12.0356 123.982 11.6769C123.246 11.2993 122.424 11.1105 121.518 11.1105C120.216 11.1105 119.102 11.5259 118.177 12.3566C117.27 13.1873 116.751 14.339 116.619 15.8116H126.418Z" fill="white"/>
<path d="M66.1228 42.6161C66.1228 40.2272 66.6397 38.1024 67.6733 36.2418C68.707 34.3582 70.1426 32.8996 71.9803 31.866C73.8409 30.8093 75.9426 30.281 78.2856 30.281C81.1569 30.281 83.6147 31.039 85.6591 32.5551C87.7035 34.0711 89.0702 36.1385 89.7593 38.7571H83.2817C82.7993 37.7464 82.1102 36.9769 81.2143 36.4485C80.3415 35.9202 79.3423 35.6561 78.2167 35.6561C76.4021 35.6561 74.932 36.2878 73.8064 37.5511C72.6809 38.8145 72.1181 40.5028 72.1181 42.6161C72.1181 44.7294 72.6809 46.4177 73.8064 47.681C74.932 48.9444 76.4021 49.5761 78.2167 49.5761C79.3423 49.5761 80.3415 49.3119 81.2143 48.7836C82.1102 48.2553 82.7993 47.4858 83.2817 46.4751H89.7593C89.0702 49.0937 87.7035 51.161 85.6591 52.6771C83.6147 54.1702 81.1569 54.9167 78.2856 54.9167C75.9426 54.9167 73.8409 54.3999 71.9803 53.3662C70.1426 52.3096 68.707 50.8509 67.6733 48.9903C66.6397 47.1298 66.1228 45.005 66.1228 42.6161ZM102.119 55.0201C100.236 55.0201 98.5358 54.6181 97.0197 53.8141C95.5266 53.0102 94.3437 51.8616 93.4708 50.3686C92.6209 48.8755 92.1959 47.1298 92.1959 45.1313C92.1959 43.1559 92.6324 41.4216 93.5053 39.9286C94.3781 38.4125 95.5726 37.2525 97.0886 36.4485C98.6047 35.6446 100.304 35.2426 102.188 35.2426C104.072 35.2426 105.771 35.6446 107.287 36.4485C108.803 37.2525 109.998 38.4125 110.871 39.9286C111.744 41.4216 112.18 43.1559 112.18 45.1313C112.18 47.1068 111.732 48.8525 110.836 50.3686C109.963 51.8616 108.758 53.0102 107.219 53.8141C105.703 54.6181 104.003 55.0201 102.119 55.0201ZM102.119 49.9206C103.245 49.9206 104.198 49.5072 104.979 48.6802C105.783 47.8533 106.185 46.6703 106.185 45.1313C106.185 43.5923 105.794 42.4093 105.013 41.5824C104.255 40.7555 103.314 40.342 102.188 40.342C101.04 40.342 100.086 40.7555 99.3282 41.5824C98.5702 42.3864 98.1912 43.5694 98.1912 45.1313C98.1912 46.6703 98.5587 47.8533 99.2938 48.6802C100.052 49.5072 100.994 49.9206 102.119 49.9206ZM114.134 45.0969C114.134 43.1214 114.502 41.3872 115.237 39.8941C115.995 38.401 117.017 37.2525 118.304 36.4485C119.59 35.6446 121.026 35.2426 122.61 35.2426C123.874 35.2426 125.022 35.5068 126.056 36.0351C127.113 36.5634 127.94 37.2755 128.537 38.1713V29.2474H134.429V54.7444H128.537V51.988C127.986 52.9068 127.193 53.6418 126.159 54.1931C125.149 54.7444 123.966 55.0201 122.61 55.0201C121.026 55.0201 119.59 54.6181 118.304 53.8141C117.017 52.9872 115.995 51.8272 115.237 50.3341C114.502 48.8181 114.134 47.0723 114.134 45.0969ZM128.537 45.1313C128.537 43.6612 128.123 42.5012 127.296 41.6513C126.492 40.8014 125.505 40.3765 124.333 40.3765C123.162 40.3765 122.163 40.8014 121.336 41.6513C120.532 42.4783 120.13 43.6268 120.13 45.0969C120.13 46.567 120.532 47.7385 121.336 48.6113C122.163 49.4612 123.162 49.8862 124.333 49.8862C125.505 49.8862 126.492 49.4612 127.296 48.6113C128.123 47.7614 128.537 46.6014 128.537 45.1313ZM156.815 44.8212C156.815 45.3725 156.78 45.9468 156.711 46.544H143.377C143.469 47.7385 143.848 48.6573 144.514 49.3004C145.203 49.9206 146.042 50.2307 147.029 50.2307C148.5 50.2307 149.522 49.6105 150.096 48.3701H156.367C156.045 49.6335 155.46 50.7705 154.61 51.7812C153.783 52.7919 152.738 53.5844 151.474 54.1587C150.211 54.7329 148.798 55.0201 147.236 55.0201C145.353 55.0201 143.676 54.6181 142.206 53.8141C140.736 53.0102 139.587 51.8616 138.76 50.3686C137.933 48.8755 137.52 47.1298 137.52 45.1313C137.52 43.1329 137.922 41.3872 138.726 39.8941C139.553 38.401 140.701 37.2525 142.171 36.4485C143.641 35.6446 145.33 35.2426 147.236 35.2426C149.097 35.2426 150.751 35.6331 152.198 36.4141C153.645 37.1951 154.77 38.3091 155.574 39.7563C156.401 41.2034 156.815 42.8917 156.815 44.8212ZM150.785 43.2707C150.785 42.26 150.441 41.4561 149.751 40.8589C149.062 40.2616 148.201 39.963 147.167 39.963C146.18 39.963 145.341 40.2501 144.652 40.8244C143.986 41.3987 143.572 42.2141 143.412 43.2707H150.785Z" fill="white"/>
</svg>
