<svg width="229" height="336" viewBox="0 0 229 336" fill="none" xmlns="http://www.w3.org/2000/svg">
<path d="M220.177 70.294C221.342 68.8639 221.907 67.0374 221.753 65.199C221.599 63.3605 220.738 61.6536 219.351 60.4374C217.963 59.2213 216.158 58.5908 214.316 58.6787C212.473 58.7666 210.736 59.5661 209.471 60.9087C209.471 60.1922 209.583 59.5038 209.583 58.717C209.581 54.9328 208.588 51.2152 206.703 47.9342C204.817 44.6533 202.105 41.9233 198.837 40.0163C195.568 38.1092 191.857 37.0915 188.073 37.0645C184.289 37.0374 180.564 38.002 177.269 39.8621C177.778 38.672 178.04 37.3912 178.041 36.0968C178.043 34.423 177.601 32.7787 176.759 31.3318C175.918 29.885 174.707 28.6875 173.251 27.8617C171.795 27.0358 170.146 26.6113 168.472 26.6314C166.799 26.6515 165.16 27.1155 163.725 27.976C163.887 26.8687 163.972 25.7513 163.978 24.6322C164.004 19.1148 162.168 13.75 158.767 9.40534C155.366 5.06064 150.599 1.99006 145.237 0.690165C139.875 -0.609735 134.231 -0.062951 129.218 2.24208C124.206 4.54711 120.117 8.47563 117.613 13.3923C116.959 11.8553 115.87 10.5426 114.481 9.61505C113.092 8.68754 111.462 8.18554 109.791 8.17062C108.121 8.15571 106.482 8.62852 105.077 9.53108C103.671 10.4336 102.559 11.7267 101.877 13.2518C99.6725 9.70101 96.3708 6.96511 92.4721 5.45817C88.5734 3.95123 84.2899 3.75529 80.27 4.9C76.25 6.04471 72.7123 8.46775 70.1923 11.8024C67.6723 15.1371 66.3071 19.202 66.3034 23.3817C66.3114 24.3464 66.3913 25.3092 66.5423 26.262C65.4981 25.4078 64.2328 24.8678 62.8937 24.7047C61.5545 24.5415 60.1966 24.762 58.9779 25.3405C57.7592 25.9189 56.7298 26.8315 56.0095 27.9722C55.2892 29.1128 54.9075 30.4345 54.909 31.7835C54.909 31.7835 54.909 31.7835 54.909 31.8678C52.3175 30.353 49.3685 29.5576 46.3668 29.5636C42.2367 29.5683 38.2474 31.0652 35.1338 33.7787C32.0201 36.4921 29.9919 40.2393 29.4227 44.33C27.5034 43.6056 25.4158 43.451 23.4107 43.8847C21.4057 44.3184 19.5686 45.322 18.1202 46.7748C16.6719 48.2276 15.6739 50.0678 15.2464 52.0741C14.8188 54.0805 14.9799 56.1677 15.7101 58.0847C10.3239 60.2302 5.85341 64.1853 3.06757 69.27C0.281717 74.3547 -0.645445 80.2511 0.445514 85.9454C1.53647 91.6397 4.57737 96.7759 9.0453 100.471C13.5132 104.166 19.129 106.189 24.9268 106.191L114.494 166.535L210.3 104.856C214.356 104.847 218.3 103.518 221.534 101.07C224.769 98.6221 227.119 95.1879 228.229 91.2864C229.34 87.3849 229.151 83.228 227.691 79.4434C226.23 75.6589 223.578 72.4523 220.135 70.308L220.177 70.294ZM207.616 67.6807C207.637 67.6325 207.66 67.5856 207.686 67.5403C207.693 67.5821 207.693 67.6248 207.686 67.6667L207.616 67.6807Z" fill="#F5F5F5"/>
<path d="M46.3808 29.5493C42.2507 29.554 38.2614 31.0509 35.1478 33.7643C32.0342 36.4778 30.006 40.225 29.4368 44.3156C27.5175 43.5913 25.4298 43.4367 23.4248 43.8704C21.4197 44.3041 19.5826 45.3076 18.1343 46.7604C16.6859 48.2132 15.688 50.0534 15.2604 52.0598C14.8329 54.0662 14.9939 56.1533 15.7242 58.0704C10.3379 60.2158 5.86746 64.171 3.08161 69.2557C0.295759 74.3403 -0.631408 80.2368 0.459551 85.9311C1.55051 91.6253 4.59142 96.7615 9.05934 100.456C13.5273 104.151 19.143 106.174 24.9408 106.177L114.508 166.521L203.753 109.071L206.043 100.487C193.89 116.265 177.648 103.704 177.648 103.704C177.648 103.704 176.412 111.755 169.612 112.246C167.727 112.428 165.831 112.036 164.174 111.12C162.517 110.205 161.175 108.81 160.325 107.118C159.441 110.714 157.506 113.965 154.765 116.455C152.025 118.946 148.604 120.562 144.94 121.098C131.677 123.556 123.936 109.001 123.936 109.001C123.936 109.001 121.449 115.562 114.508 113.806C107.568 112.05 110.026 108.186 110.026 108.186C110.026 108.186 106.078 111.656 99.2923 108.031C92.5063 104.407 92.0426 93.785 92.0426 93.785C88.4579 95.2024 84.5411 95.5587 80.7595 94.8114C76.9779 94.064 73.4911 92.2445 70.715 89.57C60.8802 80.2269 69.2117 67.3854 69.2117 67.3854C54.4313 70.2797 54.9793 58.1547 54.9793 58.1547C34.3261 55.3307 35.8154 35.0709 46.3808 29.5493Z" fill="#F0F0F0"/>
<path d="M137.564 140.023L134.431 326.351L153.918 315.097L160.325 126.886L137.564 140.023Z" fill="#FAFAFA"/>
<path d="M160.325 126.887L153.918 315.098L173.335 303.9L183.141 113.708L160.325 126.887Z" fill="#870F0F"/>
<path d="M120.943 149.619C119.068 150.599 116.974 151.082 114.859 151.024V335.596C116.974 335.654 119.068 335.171 120.943 334.191L134.431 326.408L137.564 140.08L120.943 149.619Z" fill="#870F0F"/>
<path d="M192.653 292.745L205.804 285.144C207.601 283.966 209.128 282.421 210.284 280.609C211.439 278.797 212.196 276.761 212.506 274.634L229 87.2383L206.043 100.487L192.653 292.745Z" fill="#870F0F"/>
<path d="M183.141 113.708L173.335 303.9L192.653 292.744L206.043 100.487L183.141 113.708Z" fill="#FAFAFA"/>
<path d="M92.1691 140.023L95.3022 326.351L75.8152 315.097L69.4084 126.886L92.1691 140.023Z" fill="#870F0F"/>
<path d="M69.4084 126.887L75.8151 315.098L56.3983 303.9L46.5775 113.708L69.4084 126.887Z" fill="#E6E6E6"/>
<path d="M108.72 149.619C110.596 150.596 112.689 151.079 114.803 151.024V335.596C112.689 335.651 110.596 335.167 108.72 334.191L95.246 326.408L92.1129 140.08L108.72 149.619Z" fill="#E6E6E6"/>
<path d="M37.0657 292.745L23.9151 285.144C22.1158 283.968 20.5875 282.423 19.4319 280.611C18.2764 278.799 17.5201 276.762 17.2134 274.634L0.718933 87.2383L23.6903 100.487L37.0657 292.745Z" fill="#E6E6E6"/>
<path d="M46.5775 113.708L56.3983 303.9L37.0798 292.744L23.6904 100.487L46.5775 113.708Z" fill="#870F0F"/>
<path opacity="0.1" d="M92.1691 140.023L95.3022 326.351L75.8152 315.097L69.4084 126.886L92.1691 140.023Z" fill="black"/>
<path opacity="0.1" d="M46.5775 113.708L56.3983 303.9L37.0798 292.744L23.6904 100.487L46.5775 113.708Z" fill="black"/>
<path d="M110.026 108.228C108.915 109.761 107.453 111.005 105.761 111.855C104.07 112.706 102.2 113.139 100.307 113.118C98.4141 113.097 96.5538 112.623 94.882 111.735C93.2102 110.847 91.7756 109.571 90.6985 108.014C89.6214 106.457 88.9331 104.665 88.6914 102.787C88.4496 100.91 88.6615 99.0018 89.3091 97.223C89.9568 95.4442 91.0214 93.8465 92.4137 92.5639C93.806 91.2813 95.4855 90.3511 97.3113 89.8513C96.0334 91.6217 95.269 93.7105 95.1025 95.8875C94.9359 98.0646 95.3737 100.245 96.3676 102.189C97.3614 104.134 98.8728 105.766 100.735 106.905C102.597 108.045 104.738 108.649 106.921 108.65C107.971 108.653 109.016 108.511 110.026 108.228V108.228Z" fill="#E0E0E0"/>
<path d="M123.936 109.001C124.071 110.228 123.91 111.469 123.466 112.62C123.022 113.771 122.309 114.799 121.385 115.618C120.462 116.436 119.356 117.021 118.159 117.324C116.963 117.626 115.712 117.637 114.51 117.356C113.309 117.075 112.193 116.509 111.255 115.707C110.317 114.905 109.586 113.89 109.122 112.747C108.658 111.603 108.475 110.365 108.588 109.137C108.702 107.908 109.108 106.725 109.774 105.686C109.942 107.302 110.621 108.823 111.712 110.027C113.091 111.538 115.011 112.442 117.054 112.542C119.096 112.643 121.096 111.93 122.615 110.561C123.119 110.099 123.563 109.575 123.936 109.001Z" fill="#E0E0E0"/>
<path d="M76.6722 52.8862C77.7105 54.4701 78.3539 56.28 78.5483 58.1639C78.7427 60.0478 78.4825 61.9509 77.7895 63.7134C77.0965 65.476 75.9909 67.0467 74.5655 68.2937C73.1401 69.5408 71.4364 70.4278 69.5974 70.8804C67.7584 71.3331 65.8376 71.3381 63.9962 70.895C62.1548 70.452 60.4466 69.5738 59.0147 68.3342C57.5828 67.0946 56.4691 65.5296 55.767 63.7707C55.0648 62.0117 54.7947 60.1101 54.9793 58.2252C56.3231 60.275 58.2698 61.8575 60.5508 62.7543C62.8319 63.6512 65.3351 63.8183 67.7151 63.2325C70.0952 62.6467 72.2349 61.337 73.8391 59.4839C75.4434 57.6308 76.4333 55.3256 76.6722 52.8862Z" fill="#E0E0E0"/>
<path d="M58.3231 64.1401C58.8949 65.2328 59.1963 66.4467 59.2021 67.6799C59.2079 68.9131 58.9179 70.1297 58.3565 71.2277C57.7951 72.3258 56.9785 73.2731 55.9754 73.9904C54.9722 74.7078 53.8117 75.1741 52.5911 75.3503C51.3706 75.5266 50.1256 75.4076 48.9605 75.0033C47.7954 74.5991 46.7442 73.9214 45.8951 73.027C45.046 72.1327 44.4237 71.0478 44.0804 69.8633C43.7371 68.6788 43.6828 67.4293 43.9221 66.2195C44.6682 67.666 45.8604 68.8336 47.3222 69.5493C48.2299 69.9998 49.2174 70.2671 50.2285 70.3358C51.2395 70.4045 52.2541 70.2733 53.2145 69.9498C54.1748 69.6262 55.0619 69.1165 55.8252 68.45C56.5884 67.7834 57.2129 66.973 57.6628 66.065C57.9639 65.4541 58.1858 64.8072 58.3231 64.1401Z" fill="#E0E0E0"/>
<path d="M181.02 81.4215C181.138 83.3154 180.799 85.2099 180.033 86.9459C179.267 88.6818 178.095 90.2085 176.617 91.3978C175.138 92.587 173.396 93.4041 171.536 93.7803C169.676 94.1564 167.753 94.0808 165.928 93.5597C164.104 93.0385 162.431 92.0871 161.05 90.7854C159.669 89.4836 158.621 87.8696 157.994 86.0788C157.366 84.288 157.178 82.3727 157.444 80.4939C157.71 78.6152 158.424 76.8277 159.524 75.2817C159.656 77.4615 160.388 79.5623 161.64 81.352C162.891 83.1416 164.613 84.5504 166.615 85.4228C168.617 86.2951 170.821 86.5969 172.984 86.295C175.147 85.993 177.184 85.0989 178.87 83.7116C179.679 83.0405 180.401 82.2712 181.02 81.4215V81.4215Z" fill="#E0E0E0"/>
<path d="M193.847 75.8297C193.982 77.0561 193.821 78.2971 193.378 79.4484C192.934 80.5997 192.22 81.6278 191.297 82.4463C190.374 83.2647 189.267 83.8498 188.071 84.1522C186.875 84.4546 185.623 84.4657 184.422 84.1844C183.221 83.9031 182.104 83.3377 181.167 82.5357C180.229 81.7336 179.497 80.7183 179.033 79.575C178.569 78.4317 178.386 77.1938 178.5 75.9651C178.613 74.7365 179.02 73.5529 179.685 72.5139C179.844 74.1565 180.529 75.7039 181.638 76.9255C183.016 78.4367 184.937 79.3411 186.979 79.4411C189.022 79.5411 191.022 78.8287 192.541 77.4594C193.045 76.9755 193.485 76.4276 193.847 75.8297V75.8297Z" fill="#E0E0E0"/>
<path d="M160.423 62.7915C161.525 63.3426 162.48 64.1498 163.206 65.1456C163.932 66.1413 164.409 67.2967 164.597 68.5147C164.785 69.7328 164.679 70.9782 164.286 72.1466C163.894 73.3149 163.227 74.3722 162.342 75.23C161.457 76.0877 160.379 76.7208 159.199 77.0763C158.019 77.4318 156.771 77.4994 155.559 77.2733C154.348 77.0472 153.208 76.5341 152.235 75.7769C151.263 75.0198 150.486 74.0406 149.97 72.9214C151.243 73.5546 152.666 73.8236 154.082 73.6988C155.498 73.574 156.853 73.0602 157.995 72.2142C159.138 71.3682 160.024 70.2228 160.557 68.9046C161.089 67.5864 161.247 66.1467 161.013 64.7444C160.906 64.0696 160.708 63.4126 160.423 62.7915V62.7915Z" fill="#E0E0E0"/>
</svg>
